<?xml version="1.0" encoding="UTF-8" standalone="no"?>
<!DOCTYPE svg PUBLIC "-//W3C//DTD SVG 1.1//EN"
 "http://www.w3.org/Graphics/SVG/1.1/DTD/svg11.dtd">
<!-- Generated by graphviz version 10.0.1 (20240210.2158)
 -->
<!-- Title: G Pages: 1 -->
<svg width="544pt" height="290pt"
 viewBox="0.00 0.00 543.85 289.70" xmlns="http://www.w3.org/2000/svg" xmlns:xlink="http://www.w3.org/1999/xlink">
<g id="graph0" class="graph" transform="scale(1 1) rotate(0) translate(4 285.7)">
<title>G</title>
<polygon fill="white" stroke="none" points="-4,4 -4,-285.7 539.85,-285.7 539.85,4 -4,4"/>
<!-- n1 -->
<g id="node1" class="node">
<title>n1</title>
<ellipse fill="none" stroke="black" cx="27" cy="-18" rx="27" ry="18"/>
<text text-anchor="middle" x="27" y="-12.95" font-family="Times,serif" font-size="14.00">I</text>
</g>
<!-- n2 -->
<g id="node2" class="node">
<title>n2</title>
<ellipse fill="none" stroke="black" cx="119.26" cy="-248.43" rx="27" ry="18"/>
<text text-anchor="middle" x="119.26" y="-243.38" font-family="Times,serif" font-size="14.00">J</text>
</g>
<!-- n3 -->
<g id="node3" class="node">
<title>n3</title>
<ellipse fill="none" stroke="black" cx="263.77" cy="-116.81" rx="27" ry="18"/>
<text text-anchor="middle" x="263.77" y="-111.76" font-family="Times,serif" font-size="14.00">K</text>
</g>
<!-- n4 -->
<g id="node4" class="node">
<title>n4</title>
<ellipse fill="none" stroke="black" cx="395.37" cy="-261.33" rx="27" ry="18"/>
<text text-anchor="middle" x="395.37" y="-256.28" font-family="Times,serif" font-size="14.00">L</text>
</g>
<!-- n5 -->
<g id="node5" class="node">
<title>n5</title>
<ellipse fill="none" stroke="black" cx="508.85" cy="-40.68" rx="27" ry="18"/>
<text text-anchor="middle" x="508.85" y="-35.63" font-family="Times,serif" font-size="14.00">M</text>
</g>
<!-- n6 -->
<g id="node6" class="node">
<title>n6</title>
<ellipse fill="none" stroke="black" cx="126.14" cy="-106.44" rx="27" ry="18"/>
<text text-anchor="middle" x="126.14" y="-101.39" font-family="Times,serif" font-size="14.00">IJK</text>
</g>
<!-- n6&#45;&gt;n1 -->
<g id="edge1" class="edge">
<title>n6&#45;&gt;n1</title>
<path fill="none" stroke="black" d="M109.77,-91.84C93.98,-77.76 69.88,-56.26 51.75,-40.08"/>
<polygon fill="black" stroke="black" points="54.32,-37.68 44.52,-33.63 49.66,-42.9 54.32,-37.68"/>
<text text-anchor="middle" x="65.39" y="-69.16" font-family="Times,serif" font-size="14.00">IJK_I</text>
</g>
<!-- n6&#45;&gt;n2 -->
<g id="edge2" class="edge">
<title>n6&#45;&gt;n2</title>
<path fill="none" stroke="black" d="M125.25,-124.72C124.1,-148.57 122.06,-190.62 120.69,-219"/>
<polygon fill="black" stroke="black" points="117.2,-218.56 120.22,-228.72 124.2,-218.9 117.2,-218.56"/>
<text text-anchor="middle" x="107.22" y="-175.06" font-family="Times,serif" font-size="14.00">IJK_J</text>
</g>
<!-- n6&#45;&gt;n3 -->
<g id="edge3" class="edge">
<title>n6&#45;&gt;n3</title>
<path fill="none" stroke="black" d="M153.33,-108.49C173.88,-110.04 202.36,-112.18 225.25,-113.91"/>
<polygon fill="black" stroke="black" points="224.89,-117.39 235.13,-114.65 225.42,-110.41 224.89,-117.39"/>
<text text-anchor="middle" x="171.29" y="-114.4" font-family="Times,serif" font-size="14.00">IJK_K</text>
</g>
<!-- n7 -->
<g id="node7" class="node">
<title>n7</title>
<ellipse fill="none" stroke="black" cx="256.91" cy="-263.7" rx="27" ry="18"/>
<text text-anchor="middle" x="256.91" y="-258.65" font-family="Times,serif" font-size="14.00">JKL</text>
</g>
<!-- n7&#45;&gt;n2 -->
<g id="edge4" class="edge">
<title>n7&#45;&gt;n2</title>
<path fill="none" stroke="black" d="M230.04,-260.72C209.29,-258.42 180.32,-255.21 157.2,-252.64"/>
<polygon fill="black" stroke="black" points="157.89,-249.2 147.56,-251.57 157.12,-256.16 157.89,-249.2"/>
<text text-anchor="middle" x="176" y="-259.88" font-family="Times,serif" font-size="14.00">JKL_J</text>
</g>
<!-- n7&#45;&gt;n3 -->
<g id="edge5" class="edge">
<title>n7&#45;&gt;n3</title>
<path fill="none" stroke="black" d="M257.76,-245.4C258.92,-220.52 261.02,-175.76 262.4,-146.16"/>
<polygon fill="black" stroke="black" points="265.89,-146.55 262.86,-136.4 258.89,-146.22 265.89,-146.55"/>
<text text-anchor="middle" x="240.21" y="-198.98" font-family="Times,serif" font-size="14.00">JKL_K</text>
</g>
<!-- n7&#45;&gt;n4 -->
<g id="edge6" class="edge">
<title>n7&#45;&gt;n4</title>
<path fill="none" stroke="black" d="M284.26,-263.23C304.94,-262.88 333.59,-262.39 356.62,-261.99"/>
<polygon fill="black" stroke="black" points="356.62,-265.49 366.56,-261.82 356.5,-258.49 356.62,-265.49"/>
<text text-anchor="middle" x="339.56" y="-265.81" font-family="Times,serif" font-size="14.00">JKL_L</text>
</g>
<!-- n8 -->
<g id="node8" class="node">
<title>n8</title>
<ellipse fill="none" stroke="black" cx="401.76" cy="-119.3" rx="27" ry="18"/>
<text text-anchor="middle" x="401.76" y="-114.25" font-family="Times,serif" font-size="14.00">KLM</text>
</g>
<!-- n8&#45;&gt;n3 -->
<g id="edge7" class="edge">
<title>n8&#45;&gt;n3</title>
<path fill="none" stroke="black" d="M374.5,-118.81C353.9,-118.44 325.35,-117.92 302.4,-117.51"/>
<polygon fill="black" stroke="black" points="302.55,-114.01 292.49,-117.33 302.43,-121.01 302.55,-114.01"/>
<text text-anchor="middle" x="314.82" y="-121.36" font-family="Times,serif" font-size="14.00">KLM_K</text>
</g>
<!-- n8&#45;&gt;n4 -->
<g id="edge8" class="edge">
<title>n8&#45;&gt;n4</title>
<path fill="none" stroke="black" d="M400.94,-137.58C399.87,-161.44 397.97,-203.5 396.7,-231.89"/>
<polygon fill="black" stroke="black" points="393.21,-231.46 396.26,-241.61 400.21,-231.78 393.21,-231.46"/>
<text text-anchor="middle" x="375.94" y="-187.93" font-family="Times,serif" font-size="14.00">KLM_L</text>
</g>
<!-- n8&#45;&gt;n5 -->
<g id="edge9" class="edge">
<title>n8&#45;&gt;n5</title>
<path fill="none" stroke="black" d="M419.93,-105.96C436.77,-93.6 462.08,-75.02 481.39,-60.84"/>
<polygon fill="black" stroke="black" points="483.39,-63.72 489.37,-54.98 479.24,-58.07 483.39,-63.72"/>
<text text-anchor="middle" x="425.53" y="-86.6" font-family="Times,serif" font-size="14.00">KLM_M</text>
</g>
</g>
</svg>
