<?xml version="1.0" encoding="UTF-8" standalone="no"?>
<!DOCTYPE svg PUBLIC "-//W3C//DTD SVG 1.1//EN"
 "http://www.w3.org/Graphics/SVG/1.1/DTD/svg11.dtd">
<!-- Generated by graphviz version 9.0.0 (20230911.1827)
 -->
<!-- Title: G Pages: 1 -->
<svg width="208pt" height="252pt"
 viewBox="0.00 0.00 208.04 252.00" xmlns="http://www.w3.org/2000/svg" xmlns:xlink="http://www.w3.org/1999/xlink">
<g id="graph0" class="graph" transform="scale(0.970974 0.970974) rotate(0) translate(4 255.53)">
<title>G</title>
<polygon fill="white" stroke="none" points="-4,4 -4,-255.53 210.26,-255.53 210.26,4 -4,4"/>
<!-- n1 -->
<g id="box1" class="node">
<title>n1</title>
<ellipse fill="none" stroke="black" cx="91.56" cy="-178.45" rx="18" ry="18"/>
<text text-anchor="middle" x="91.56" y="-172.28" font-family="Serif" font-size="14.00">IJK</text>
</g>
<!-- n9 -->
<!-- junction -->
<g id="junction1" class="node">
<title>n9</title>
<ellipse fill="black" stroke="black" cx="43.15" cy="-204.16" rx="2.7" ry="2.7"/>
<text text-anchor="middle" x="38.57" y="-207.81" font-family="Serif" font-size="14.00">i</text>
</g>
<!-- n1&#45;&#45;n9 -->
<g id="edge1" class="edge">
<title>n1&#45;&#45;n9</title>
<path fill="none" stroke="black" d="M75.44,-187.01C64.65,-192.74 51.45,-199.74 45.86,-202.72"/>
</g>
<!-- n10 -->
<!-- junction -->
<g id="junction2" class="node">
<title>n10</title>
<ellipse fill="black" stroke="black" cx="121.48" cy="-200.82" rx="2.7" ry="2.7"/>
<text text-anchor="middle" x="116.9" y="-204.47" font-family="Serif" font-size="14.00">j</text>
</g>
<!-- n1&#45;&#45;n10 -->
<g id="edge3" class="edge">
<title>n1&#45;&#45;n10</title>
<path fill="none" stroke="black" d="M106.17,-189.37C111.15,-193.1 116.19,-196.87 119.06,-199.02"/>
</g>
<!-- n11 -->
<!-- junction -->
<g id="junction3" class="node">
<title>n11</title>
<ellipse fill="black" stroke="black" cx="144.78" cy="-139.51" rx="2.7" ry="2.7"/>
<text text-anchor="middle" x="138.71" y="-143.16" font-family="Serif" font-size="14.00">k</text>
</g>
<!-- n1&#45;&#45;n11 -->
<g id="edge6" class="edge">
<title>n1&#45;&#45;n11</title>
<path fill="none" stroke="black" d="M106.38,-167.61C118.93,-158.42 135.87,-146.04 142.23,-141.38"/>
</g>
<!-- n2 -->
<g id="box2" class="node">
<title>n2</title>
<ellipse fill="none" stroke="black" cx="104.93" cy="-138.41" rx="18" ry="18"/>
<text text-anchor="middle" x="104.93" y="-132.23" font-family="Serif" font-size="14.00">JKL</text>
</g>
<!-- n2&#45;&#45;n10 -->
<g id="edge4" class="edge">
<title>n2&#45;&#45;n10</title>
<path fill="none" stroke="black" d="M109.63,-156.13C113.53,-170.83 118.74,-190.48 120.69,-197.86"/>
</g>
<!-- n2&#45;&#45;n11 -->
<g id="edge7" class="edge">
<title>n2&#45;&#45;n11</title>
<path fill="none" stroke="black" d="M122.99,-138.91C130.24,-139.11 137.82,-139.32 141.85,-139.43"/>
</g>
<!-- n12 -->
<!-- junction -->
<g id="junction4" class="node">
<title>n12</title>
<ellipse fill="black" stroke="black" cx="95.09" cy="-82.74" rx="2.7" ry="2.7"/>
<text text-anchor="middle" x="90.51" y="-86.39" font-family="Serif" font-size="14.00">l</text>
</g>
<!-- n2&#45;&#45;n12 -->
<g id="edge10" class="edge">
<title>n2&#45;&#45;n12</title>
<path fill="none" stroke="black" d="M101.76,-120.49C99.51,-107.77 96.7,-91.89 95.58,-85.54"/>
</g>
<!-- n3 -->
<g id="box3" class="node">
<title>n3</title>
<ellipse fill="none" stroke="black" cx="145.78" cy="-82.31" rx="21.85" ry="18"/>
<text text-anchor="middle" x="145.78" y="-76.13" font-family="Serif" font-size="14.00">KLM</text>
</g>
<!-- n3&#45;&#45;n11 -->
<g id="edge8" class="edge">
<title>n3&#45;&#45;n11</title>
<path fill="none" stroke="black" d="M145.46,-100.72C145.23,-113.79 144.95,-130.11 144.83,-136.63"/>
</g>
<!-- n3&#45;&#45;n12 -->
<g id="edge11" class="edge">
<title>n3&#45;&#45;n12</title>
<path fill="none" stroke="black" d="M123.69,-82.5C113.87,-82.58 103.39,-82.67 98.27,-82.71"/>
</g>
<!-- n13 -->
<!-- junction -->
<g id="junction5" class="node">
<title>n13</title>
<ellipse fill="black" stroke="black" cx="176.51" cy="-40.37" rx="2.7" ry="2.7"/>
<text text-anchor="middle" x="168.18" y="-44.02" font-family="Serif" font-size="14.00">m</text>
</g>
<!-- n3&#45;&#45;n13 -->
<g id="edge13" class="edge">
<title>n3&#45;&#45;n13</title>
<path fill="none" stroke="black" d="M157.22,-66.69C163.77,-57.75 171.35,-47.41 174.72,-42.8"/>
</g>
<!-- n4 -->
<!-- n4&#45;&#45;n9 -->
<g id="edge2" class="edge">
<title>n4&#45;&#45;n9</title>
<path fill="none" stroke="black" d="M0.48,-230.54C2.6,-229.23 31.52,-211.35 40.5,-205.79"/>
</g>
<!-- n5 -->
<!-- n5&#45;&#45;n10 -->
<g id="edge5" class="edge">
<title>n5&#45;&#45;n10</title>
<path fill="none" stroke="black" d="M138.18,-250.25C136.62,-245.62 125.8,-213.61 122.46,-203.73"/>
</g>
<!-- n6 -->
<!-- n6&#45;&#45;n11 -->
<g id="edge9" class="edge">
<title>n6&#45;&#45;n11</title>
<path fill="none" stroke="black" d="M196.12,-156.31C193.55,-155.47 158.13,-143.88 147.67,-140.46"/>
</g>
<!-- n7 -->
<!-- n7&#45;&#45;n12 -->
<g id="edge12" class="edge">
<title>n7&#45;&#45;n12</title>
<path fill="none" stroke="black" d="M57.43,-46.05C59.34,-47.91 85.78,-73.67 93.18,-80.88"/>
</g>
<!-- n8 -->
<!-- n8&#45;&#45;n13 -->
<g id="edge14" class="edge">
<title>n8&#45;&#45;n13</title>
<path fill="none" stroke="black" d="M205.57,-1.17C202.85,-4.84 184.03,-30.22 178.22,-38.06"/>
</g>
</g>
</svg>
