<?xml version="1.0" encoding="UTF-8" standalone="no"?>
<!DOCTYPE svg PUBLIC "-//W3C//DTD SVG 1.1//EN"
 "http://www.w3.org/Graphics/SVG/1.1/DTD/svg11.dtd">
<!-- Generated by graphviz version 3.0.0 (20220226.1711)
 -->
<!-- Title: G Pages: 1 -->
<svg width="209pt" height="252pt"
 viewBox="0.00 0.00 208.58 252.00" xmlns="http://www.w3.org/2000/svg" xmlns:xlink="http://www.w3.org/1999/xlink">
<g id="graph0" class="graph" transform="scale(0.97045 0.97045) rotate(0) translate(4 255.67)">
<title>G</title>
<polygon fill="white" stroke="transparent" points="-4,4 -4,-255.67 210.93,-255.67 210.93,4 -4,4"/>
<!-- n1 -->
<g id="box1" class="node">
<title>n1</title>
<ellipse fill="none" stroke="black" cx="91.99" cy="-178.59" rx="18" ry="18"/>
<text text-anchor="middle" x="91.99" y="-174.89" font-family="Serif" font-size="14.00">IJK</text>
</g>
<!-- n9 -->
<!-- junction -->
<g id="junction1" class="node">
<title>n9</title>
<ellipse fill="black" stroke="black" cx="43.41" cy="-204.23" rx="2.5" ry="2.5"/>
<text text-anchor="middle" x="38.91" y="-210.53" font-family="Serif" font-size="14.00">i</text>
</g>
<!-- n1&#45;&#45;n9 -->
<g id="edge1" class="edge">
<title>n1&#45;&#45;n9</title>
<path fill="none" stroke="black" d="M75.81,-187.13C64.77,-192.95 51.21,-200.11 45.8,-202.97"/>
</g>
<!-- n10 -->
<!-- junction -->
<g id="junction2" class="node">
<title>n10</title>
<ellipse fill="black" stroke="black" cx="121.91" cy="-201.09" rx="2.5" ry="2.5"/>
<text text-anchor="middle" x="117.41" y="-207.39" font-family="Serif" font-size="14.00">j</text>
</g>
<!-- n1&#45;&#45;n10 -->
<g id="edge3" class="edge">
<title>n1&#45;&#45;n10</title>
<path fill="none" stroke="black" d="M106.6,-189.58C111.82,-193.5 117.1,-197.48 119.88,-199.57"/>
</g>
<!-- n11 -->
<!-- junction -->
<g id="junction3" class="node">
<title>n11</title>
<ellipse fill="black" stroke="black" cx="145.33" cy="-139.58" rx="2.5" ry="2.5"/>
<text text-anchor="middle" x="139.33" y="-145.88" font-family="Serif" font-size="14.00">k</text>
</g>
<!-- n1&#45;&#45;n11 -->
<g id="edge6" class="edge">
<title>n1&#45;&#45;n11</title>
<path fill="none" stroke="black" d="M106.56,-167.93C119.39,-158.55 136.97,-145.7 143.1,-141.21"/>
</g>
<!-- n2 -->
<g id="box2" class="node">
<title>n2</title>
<ellipse fill="none" stroke="black" cx="105.42" cy="-138.56" rx="18.68" ry="18"/>
<text text-anchor="middle" x="105.42" y="-134.86" font-family="Serif" font-size="14.00">JKL</text>
</g>
<!-- n2&#45;&#45;n10 -->
<g id="edge4" class="edge">
<title>n2&#45;&#45;n10</title>
<path fill="none" stroke="black" d="M110.1,-156.31C114.06,-171.33 119.38,-191.51 121.23,-198.54"/>
</g>
<!-- n2&#45;&#45;n11 -->
<g id="edge7" class="edge">
<title>n2&#45;&#45;n11</title>
<path fill="none" stroke="black" d="M124.44,-139.04C131.67,-139.23 139.06,-139.42 142.81,-139.52"/>
</g>
<!-- n12 -->
<!-- junction -->
<g id="junction4" class="node">
<title>n12</title>
<ellipse fill="black" stroke="black" cx="95.47" cy="-82.79" rx="2.5" ry="2.5"/>
<text text-anchor="middle" x="90.97" y="-89.09" font-family="Serif" font-size="14.00">l</text>
</g>
<!-- n2&#45;&#45;n12 -->
<g id="edge10" class="edge">
<title>n2&#45;&#45;n12</title>
<path fill="none" stroke="black" d="M102.22,-120.61C99.94,-107.87 97.1,-91.95 95.97,-85.6"/>
</g>
<!-- n3 -->
<g id="box3" class="node">
<title>n3</title>
<ellipse fill="none" stroke="black" cx="146.25" cy="-82.27" rx="22.92" ry="18"/>
<text text-anchor="middle" x="146.25" y="-78.57" font-family="Serif" font-size="14.00">KLM</text>
</g>
<!-- n3&#45;&#45;n11 -->
<g id="edge8" class="edge">
<title>n3&#45;&#45;n11</title>
<path fill="none" stroke="black" d="M145.96,-100.4C145.74,-113.78 145.47,-130.72 145.37,-137.04"/>
</g>
<!-- n3&#45;&#45;n12 -->
<g id="edge11" class="edge">
<title>n3&#45;&#45;n12</title>
<path fill="none" stroke="black" d="M123.23,-82.5C113.37,-82.61 103.02,-82.71 98.22,-82.76"/>
</g>
<!-- n13 -->
<!-- junction -->
<g id="junction5" class="node">
<title>n13</title>
<ellipse fill="black" stroke="black" cx="176.95" cy="-40.19" rx="2.5" ry="2.5"/>
<text text-anchor="middle" x="168.45" y="-46.49" font-family="Serif" font-size="14.00">m</text>
</g>
<!-- n3&#45;&#45;n13 -->
<g id="edge13" class="edge">
<title>n3&#45;&#45;n13</title>
<path fill="none" stroke="black" d="M157.68,-66.6C164.22,-57.63 171.79,-47.26 175.16,-42.63"/>
</g>
<!-- n4 -->
<!-- n4&#45;&#45;n9 -->
<g id="edge2" class="edge">
<title>n4&#45;&#45;n9</title>
<path fill="none" stroke="black" d="M1.24,-230.21C6.05,-227.25 32.77,-210.79 41,-205.72"/>
</g>
<!-- n5 -->
<!-- n5&#45;&#45;n10 -->
<g id="edge5" class="edge">
<title>n5&#45;&#45;n10</title>
<path fill="none" stroke="black" d="M138.59,-250.61C137,-245.88 125.82,-212.71 122.71,-203.48"/>
</g>
<!-- n6 -->
<!-- n6&#45;&#45;n11 -->
<g id="edge9" class="edge">
<title>n6&#45;&#45;n11</title>
<path fill="none" stroke="black" d="M196.32,-156.25C191.45,-154.66 157.29,-143.49 147.78,-140.38"/>
</g>
<!-- n7 -->
<!-- n7&#45;&#45;n12 -->
<g id="edge12" class="edge">
<title>n7&#45;&#45;n12</title>
<path fill="none" stroke="black" d="M58.26,-46.59C62.5,-50.72 86.07,-73.65 93.34,-80.72"/>
</g>
<!-- n8 -->
<!-- n8&#45;&#45;n13 -->
<g id="edge14" class="edge">
<title>n8&#45;&#45;n13</title>
<path fill="none" stroke="black" d="M205.92,-1.19C202.62,-5.64 184.26,-30.34 178.61,-37.96"/>
</g>
</g>
</svg>
