<?xml version="1.0" encoding="UTF-8" standalone="no"?>
<!DOCTYPE svg PUBLIC "-//W3C//DTD SVG 1.1//EN"
 "http://www.w3.org/Graphics/SVG/1.1/DTD/svg11.dtd">
<!-- Generated by graphviz version 3.0.0 (20220226.1711)
 -->
<!-- Title: G Pages: 1 -->
<svg width="544pt" height="285pt"
 viewBox="0.00 0.00 544.13 284.64" xmlns="http://www.w3.org/2000/svg" xmlns:xlink="http://www.w3.org/1999/xlink">
<g id="graph0" class="graph" transform="scale(1 1) rotate(0) translate(4 280.64)">
<title>G</title>
<polygon fill="white" stroke="transparent" points="-4,4 -4,-280.64 540.13,-280.64 540.13,4 -4,4"/>
<!-- n1 -->
<g id="node1" class="node">
<title>n1</title>
<ellipse fill="none" stroke="black" cx="27" cy="-18" rx="27" ry="18"/>
<text text-anchor="middle" x="27" y="-14.3" font-family="Times,serif" font-size="14.00">I</text>
</g>
<!-- n2 -->
<g id="node2" class="node">
<title>n2</title>
<ellipse fill="none" stroke="black" cx="116.82" cy="-245.56" rx="27" ry="18"/>
<text text-anchor="middle" x="116.82" y="-241.86" font-family="Times,serif" font-size="14.00">J</text>
</g>
<!-- n3 -->
<g id="node3" class="node">
<title>n3</title>
<ellipse fill="none" stroke="black" cx="266.03" cy="-70.74" rx="27" ry="18"/>
<text text-anchor="middle" x="266.03" y="-67.04" font-family="Times,serif" font-size="14.00">K</text>
</g>
<!-- n4 -->
<g id="node4" class="node">
<title>n4</title>
<ellipse fill="none" stroke="black" cx="398.37" cy="-258.64" rx="27" ry="18"/>
<text text-anchor="middle" x="398.37" y="-254.94" font-family="Times,serif" font-size="14.00">L</text>
</g>
<!-- n5 -->
<g id="node5" class="node">
<title>n5</title>
<ellipse fill="none" stroke="black" cx="509.13" cy="-40.69" rx="27" ry="18"/>
<text text-anchor="middle" x="509.13" y="-36.99" font-family="Times,serif" font-size="14.00">M</text>
</g>
<!-- n6 -->
<g id="node6" class="node">
<title>n6</title>
<ellipse fill="none" stroke="black" cx="132.47" cy="-100.68" rx="27" ry="18"/>
<text text-anchor="middle" x="132.47" y="-96.98" font-family="Times,serif" font-size="14.00">IJK</text>
</g>
<!-- n6&#45;&gt;n1 -->
<g id="edge1" class="edge">
<title>n6&#45;&gt;n1</title>
<path fill="none" stroke="black" d="M114.58,-86.65C97.58,-73.33 71.84,-53.15 52.66,-38.12"/>
<polygon fill="black" stroke="black" points="54.66,-35.23 44.63,-31.82 50.34,-40.74 54.66,-35.23"/>
<text text-anchor="middle" x="68.12" y="-66.19" font-family="Times,serif" font-size="14.00">IJK_I</text>
</g>
<!-- n6&#45;&gt;n2 -->
<g id="edge2" class="edge">
<title>n6&#45;&gt;n2</title>
<path fill="none" stroke="black" d="M130.52,-118.74C127.85,-143.46 123.03,-188.11 119.87,-217.29"/>
<polygon fill="black" stroke="black" points="116.39,-216.96 118.79,-227.28 123.35,-217.71 116.39,-216.96"/>
<text text-anchor="middle" x="109.2" y="-171.81" font-family="Times,serif" font-size="14.00">IJK_J</text>
</g>
<!-- n6&#45;&gt;n3 -->
<g id="edge3" class="edge">
<title>n6&#45;&gt;n3</title>
<path fill="none" stroke="black" d="M158.22,-94.91C178.73,-90.31 207.67,-83.82 230.4,-78.73"/>
<polygon fill="black" stroke="black" points="231.36,-82.1 240.36,-76.5 229.83,-75.27 231.36,-82.1"/>
<text text-anchor="middle" x="212.81" y="-90.62" font-family="Times,serif" font-size="14.00">IJK_K</text>
</g>
<!-- n9 -->
<g id="node9" class="node">
<title>n9</title>
<ellipse fill="black" stroke="black" cx="263.04" cy="-135.99" rx="1.8" ry="1.8"/>
<text text-anchor="middle" x="242.74" y="-141.59" font-family="Times,serif" font-size="14.00">IntAttr</text>
</g>
<!-- n6&#45;&gt;n9 -->
<g id="edge10" class="edge">
<title>n6&#45;&gt;n9</title>
<path fill="none" stroke="black" d="M157.65,-107.49C185.74,-115.09 230.02,-127.06 251.11,-132.76"/>
<polygon fill="black" stroke="black" points="250.49,-136.22 261.06,-135.45 252.32,-129.46 250.49,-136.22"/>
<text text-anchor="middle" x="178.88" y="-123.93" font-family="Times,serif" font-size="14.00">value_ijk</text>
</g>
<!-- n7 -->
<g id="node7" class="node">
<title>n7</title>
<ellipse fill="none" stroke="black" cx="257.97" cy="-243.78" rx="27" ry="18"/>
<text text-anchor="middle" x="257.97" y="-240.08" font-family="Times,serif" font-size="14.00">JKL</text>
</g>
<!-- n7&#45;&gt;n2 -->
<g id="edge4" class="edge">
<title>n7&#45;&gt;n2</title>
<path fill="none" stroke="black" d="M230.76,-244.13C208.99,-244.4 178.22,-244.79 154.15,-245.09"/>
<polygon fill="black" stroke="black" points="153.91,-241.59 143.95,-245.22 154,-248.59 153.91,-241.59"/>
<text text-anchor="middle" x="174.45" y="-248.41" font-family="Times,serif" font-size="14.00">JKL_J</text>
</g>
<!-- n7&#45;&gt;n3 -->
<g id="edge5" class="edge">
<title>n7&#45;&gt;n3</title>
<path fill="none" stroke="black" d="M258.82,-225.59C260.22,-195.47 263.04,-135.03 264.7,-99.21"/>
<polygon fill="black" stroke="black" points="268.21,-99.1 265.18,-88.95 261.22,-98.78 268.21,-99.1"/>
<text text-anchor="middle" x="241.76" y="-166.2" font-family="Times,serif" font-size="14.00">JKL_K</text>
</g>
<!-- n7&#45;&gt;n4 -->
<g id="edge6" class="edge">
<title>n7&#45;&gt;n4</title>
<path fill="none" stroke="black" d="M284.71,-246.61C306.34,-248.9 337.03,-252.15 361.07,-254.69"/>
<polygon fill="black" stroke="black" points="360.94,-258.2 371.26,-255.77 361.68,-251.24 360.94,-258.2"/>
<text text-anchor="middle" x="342.39" y="-254.45" font-family="Times,serif" font-size="14.00">JKL_L</text>
</g>
<!-- n7&#45;&gt;n9 -->
<g id="edge11" class="edge">
<title>n7&#45;&gt;n9</title>
<path fill="none" stroke="black" d="M258.83,-225.5C259.87,-203.46 261.58,-167.03 262.47,-148.16"/>
<polygon fill="black" stroke="black" points="265.97,-148.14 262.95,-137.98 258.98,-147.81 265.97,-148.14"/>
<text text-anchor="middle" x="235.15" y="-190.63" font-family="Times,serif" font-size="14.00">value_jkl</text>
</g>
<!-- n8 -->
<g id="node8" class="node">
<title>n8</title>
<ellipse fill="none" stroke="black" cx="396.25" cy="-112.88" rx="27" ry="18"/>
<text text-anchor="middle" x="396.25" y="-109.18" font-family="Times,serif" font-size="14.00">KLM</text>
</g>
<!-- n8&#45;&gt;n3 -->
<g id="edge7" class="edge">
<title>n8&#45;&gt;n3</title>
<path fill="none" stroke="black" d="M371.76,-104.95C351.47,-98.39 322.44,-89 299.93,-81.71"/>
<polygon fill="black" stroke="black" points="301,-78.38 290.41,-78.63 298.85,-85.04 301,-78.38"/>
<text text-anchor="middle" x="311.84" y="-97.13" font-family="Times,serif" font-size="14.00">KLM_K</text>
</g>
<!-- n8&#45;&gt;n4 -->
<g id="edge8" class="edge">
<title>n8&#45;&gt;n4</title>
<path fill="none" stroke="black" d="M396.51,-131.04C396.88,-155.92 397.53,-200.84 397.96,-230.2"/>
<polygon fill="black" stroke="black" points="394.46,-230.3 398.11,-240.25 401.46,-230.2 394.46,-230.3"/>
<text text-anchor="middle" x="374.24" y="-184.42" font-family="Times,serif" font-size="14.00">KLM_L</text>
</g>
<!-- n8&#45;&gt;n5 -->
<g id="edge9" class="edge">
<title>n8&#45;&gt;n5</title>
<path fill="none" stroke="black" d="M415.91,-100.3C433.85,-88.83 460.57,-71.75 480.81,-58.81"/>
<polygon fill="black" stroke="black" points="482.78,-61.7 489.32,-53.37 479,-55.8 482.78,-61.7"/>
<text text-anchor="middle" x="422.86" y="-83.36" font-family="Times,serif" font-size="14.00">KLM_M</text>
</g>
<!-- n8&#45;&gt;n9 -->
<g id="edge12" class="edge">
<title>n8&#45;&gt;n9</title>
<path fill="none" stroke="black" d="M369.93,-117.44C341.18,-122.43 296.4,-130.2 275.09,-133.9"/>
<polygon fill="black" stroke="black" points="274.3,-130.48 265.05,-135.64 275.5,-137.38 274.3,-130.48"/>
<text text-anchor="middle" x="293.51" y="-129.47" font-family="Times,serif" font-size="14.00">value_klm</text>
</g>
</g>
</svg>
