<?xml version="1.0" encoding="UTF-8" standalone="no"?>
<!DOCTYPE svg PUBLIC "-//W3C//DTD SVG 1.1//EN"
 "http://www.w3.org/Graphics/SVG/1.1/DTD/svg11.dtd">
<!-- Generated by graphviz version 9.0.0 (20230911.1827)
 -->
<!-- Title: G Pages: 1 -->
<svg width="249pt" height="225pt"
 viewBox="0.00 0.00 248.62 225.09" xmlns="http://www.w3.org/2000/svg" xmlns:xlink="http://www.w3.org/1999/xlink">
<g id="graph0" class="graph" transform="scale(1 1) rotate(0) translate(4 221.09)">
<title>G</title>
<polygon fill="white" stroke="none" points="-4,4 -4,-221.09 244.62,-221.09 244.62,4 -4,4"/>
<!-- n1 -->
<g id="node1" class="node">
<title>n1</title>
<ellipse fill="none" stroke="black" cx="121.85" cy="-100.79" rx="27" ry="18"/>
<text text-anchor="middle" x="121.85" y="-95.74" font-family="Times,serif" font-size="14.00">IJKLM</text>
</g>
<!-- n2 -->
<g id="node2" class="node">
<title>n2</title>
<ellipse fill="none" stroke="black" cx="184.65" cy="-25.06" rx="27" ry="18"/>
<text text-anchor="middle" x="184.65" y="-20.01" font-family="Times,serif" font-size="14.00">I</text>
</g>
<!-- n1&#45;&gt;n2 -->
<g id="edge1" class="edge">
<title>n1&#45;&gt;n2</title>
<path fill="none" stroke="black" d="M135.17,-84.73C143.58,-74.59 154.61,-61.28 164.12,-49.81"/>
<polygon fill="black" stroke="black" points="166.69,-52.2 170.38,-42.26 161.31,-47.73 166.69,-52.2"/>
<text text-anchor="middle" x="147.77" y="-53.97" font-family="Times,serif" font-size="14.00">i</text>
</g>
<!-- n3 -->
<g id="node3" class="node">
<title>n3</title>
<ellipse fill="none" stroke="black" cx="68.87" cy="-18" rx="27" ry="18"/>
<text text-anchor="middle" x="68.87" y="-12.95" font-family="Times,serif" font-size="14.00">J</text>
</g>
<!-- n1&#45;&gt;n3 -->
<g id="edge2" class="edge">
<title>n1&#45;&gt;n3</title>
<path fill="none" stroke="black" d="M111.13,-84.04C103.81,-72.59 93.95,-57.19 85.6,-44.14"/>
<polygon fill="black" stroke="black" points="88.73,-42.54 80.39,-36 82.84,-46.31 88.73,-42.54"/>
<text text-anchor="middle" x="96.49" y="-67.29" font-family="Times,serif" font-size="14.00">j</text>
</g>
<!-- n4 -->
<g id="node4" class="node">
<title>n4</title>
<ellipse fill="none" stroke="black" cx="27" cy="-126.64" rx="27" ry="18"/>
<text text-anchor="middle" x="27" y="-121.59" font-family="Times,serif" font-size="14.00">K</text>
</g>
<!-- n1&#45;&gt;n4 -->
<g id="edge3" class="edge">
<title>n1&#45;&gt;n4</title>
<path fill="none" stroke="black" d="M96.43,-107.72C86.33,-110.47 74.52,-113.69 63.53,-116.68"/>
<polygon fill="black" stroke="black" points="62.68,-113.29 53.95,-119.29 64.52,-120.04 62.68,-113.29"/>
<text text-anchor="middle" x="76.61" y="-115.4" font-family="Times,serif" font-size="14.00">k</text>
</g>
<!-- n5 -->
<g id="node5" class="node">
<title>n5</title>
<ellipse fill="none" stroke="black" cx="213.62" cy="-136.46" rx="27" ry="18"/>
<text text-anchor="middle" x="213.62" y="-131.41" font-family="Times,serif" font-size="14.00">L</text>
</g>
<!-- n1&#45;&gt;n5 -->
<g id="edge4" class="edge">
<title>n1&#45;&gt;n5</title>
<path fill="none" stroke="black" d="M145.48,-109.98C155.87,-114.01 168.26,-118.83 179.6,-123.24"/>
<polygon fill="black" stroke="black" points="178.07,-126.4 188.65,-126.76 180.6,-119.87 178.07,-126.4"/>
<text text-anchor="middle" x="160.67" y="-119.81" font-family="Times,serif" font-size="14.00">l</text>
</g>
<!-- n6 -->
<g id="node6" class="node">
<title>n6</title>
<ellipse fill="none" stroke="black" cx="117.21" cy="-199.09" rx="27" ry="18"/>
<text text-anchor="middle" x="117.21" y="-194.04" font-family="Times,serif" font-size="14.00">M</text>
</g>
<!-- n1&#45;&gt;n6 -->
<g id="edge5" class="edge">
<title>n1&#45;&gt;n6</title>
<path fill="none" stroke="black" d="M120.98,-119.28C120.31,-133.42 119.38,-153.2 118.61,-169.53"/>
<polygon fill="black" stroke="black" points="115.13,-169.02 118.15,-179.17 122.12,-169.35 115.13,-169.02"/>
<text text-anchor="middle" x="114.17" y="-147.61" font-family="Times,serif" font-size="14.00">m</text>
</g>
</g>
</svg>
