<?xml version="1.0" encoding="UTF-8" standalone="no"?>
<!DOCTYPE svg PUBLIC "-//W3C//DTD SVG 1.1//EN"
 "http://www.w3.org/Graphics/SVG/1.1/DTD/svg11.dtd">
<!-- Generated by graphviz version 9.0.0 (20230911.1827)
 -->
<!-- Title: G Pages: 1 -->
<svg width="544pt" height="285pt"
 viewBox="0.00 0.00 544.13 284.64" xmlns="http://www.w3.org/2000/svg" xmlns:xlink="http://www.w3.org/1999/xlink">
<g id="graph0" class="graph" transform="scale(1 1) rotate(0) translate(4 280.64)">
<title>G</title>
<polygon fill="white" stroke="none" points="-4,4 -4,-280.64 540.13,-280.64 540.13,4 -4,4"/>
<!-- n1 -->
<g id="node1" class="node">
<title>n1</title>
<ellipse fill="none" stroke="black" cx="27" cy="-18" rx="27" ry="18"/>
<text text-anchor="middle" x="27" y="-12.95" font-family="Times,serif" font-size="14.00">I</text>
</g>
<!-- n2 -->
<g id="node2" class="node">
<title>n2</title>
<ellipse fill="none" stroke="black" cx="116.82" cy="-245.56" rx="27" ry="18"/>
<text text-anchor="middle" x="116.82" y="-240.51" font-family="Times,serif" font-size="14.00">J</text>
</g>
<!-- n3 -->
<g id="node3" class="node">
<title>n3</title>
<ellipse fill="none" stroke="black" cx="266.03" cy="-70.74" rx="27" ry="18"/>
<text text-anchor="middle" x="266.03" y="-65.69" font-family="Times,serif" font-size="14.00">K</text>
</g>
<!-- n4 -->
<g id="node4" class="node">
<title>n4</title>
<ellipse fill="none" stroke="black" cx="398.37" cy="-258.64" rx="27" ry="18"/>
<text text-anchor="middle" x="398.37" y="-253.59" font-family="Times,serif" font-size="14.00">L</text>
</g>
<!-- n5 -->
<g id="node5" class="node">
<title>n5</title>
<ellipse fill="none" stroke="black" cx="509.13" cy="-40.69" rx="27" ry="18"/>
<text text-anchor="middle" x="509.13" y="-35.64" font-family="Times,serif" font-size="14.00">M</text>
</g>
<!-- n6 -->
<g id="node6" class="node">
<title>n6</title>
<ellipse fill="none" stroke="black" cx="132.47" cy="-100.68" rx="27" ry="18"/>
<text text-anchor="middle" x="132.47" y="-95.63" font-family="Times,serif" font-size="14.00">IJK</text>
</g>
<!-- n6&#45;&gt;n1 -->
<g id="edge1" class="edge">
<title>n6&#45;&gt;n1</title>
<path fill="none" stroke="black" d="M114.58,-86.65C97.81,-73.51 72.53,-53.7 53.44,-38.73"/>
<polygon fill="black" stroke="black" points="55.85,-36.17 45.82,-32.75 51.53,-41.68 55.85,-36.17"/>
<text text-anchor="middle" x="68.63" y="-65.89" font-family="Times,serif" font-size="14.00">IJK_I</text>
</g>
<!-- n6&#45;&gt;n2 -->
<g id="edge2" class="edge">
<title>n6&#45;&gt;n2</title>
<path fill="none" stroke="black" d="M130.49,-119.03C127.84,-143.52 123.13,-187.19 119.98,-216.26"/>
<polygon fill="black" stroke="black" points="116.54,-215.54 118.95,-225.86 123.5,-216.29 116.54,-215.54"/>
<text text-anchor="middle" x="109.49" y="-170.85" font-family="Times,serif" font-size="14.00">IJK_J</text>
</g>
<!-- n6&#45;&gt;n3 -->
<g id="edge3" class="edge">
<title>n6&#45;&gt;n3</title>
<path fill="none" stroke="black" d="M158.54,-94.84C178.58,-90.34 206.53,-84.08 228.9,-79.06"/>
<polygon fill="black" stroke="black" points="229.56,-82.5 238.55,-76.9 228.03,-75.67 229.56,-82.5"/>
<text text-anchor="middle" x="211.72" y="-90.15" font-family="Times,serif" font-size="14.00">IJK_K</text>
</g>
<!-- n9 -->
<g id="node9" class="node">
<title>n9</title>
<ellipse fill="black" stroke="black" cx="263.04" cy="-135.99" rx="1.8" ry="1.8"/>
<text text-anchor="middle" x="242.87" y="-140.99" font-family="Times,serif" font-size="14.00">IntAttr</text>
</g>
<!-- n6&#45;&gt;n9 -->
<g id="edge10" class="edge">
<title>n6&#45;&gt;n9</title>
<path fill="none" stroke="black" d="M157.96,-107.57C185.69,-115.07 228.93,-126.77 250.26,-132.53"/>
<polygon fill="black" stroke="black" points="249.04,-135.83 259.6,-135.06 250.87,-129.07 249.04,-135.83"/>
<text text-anchor="middle" x="178.98" y="-123.25" font-family="Times,serif" font-size="14.00">value_ijk</text>
</g>
<!-- n7 -->
<g id="node7" class="node">
<title>n7</title>
<ellipse fill="none" stroke="black" cx="257.97" cy="-243.78" rx="27" ry="18"/>
<text text-anchor="middle" x="257.97" y="-238.73" font-family="Times,serif" font-size="14.00">JKL</text>
</g>
<!-- n7&#45;&gt;n2 -->
<g id="edge4" class="edge">
<title>n7&#45;&gt;n2</title>
<path fill="none" stroke="black" d="M230.76,-244.13C209.38,-244.4 179.32,-244.77 155.45,-245.07"/>
<polygon fill="black" stroke="black" points="155.42,-241.57 145.47,-245.2 155.51,-248.57 155.42,-241.57"/>
<text text-anchor="middle" x="175.48" y="-247.8" font-family="Times,serif" font-size="14.00">JKL_J</text>
</g>
<!-- n7&#45;&gt;n3 -->
<g id="edge5" class="edge">
<title>n7&#45;&gt;n3</title>
<path fill="none" stroke="black" d="M258.82,-225.59C260.21,-195.81 262.97,-136.38 264.65,-100.43"/>
<polygon fill="black" stroke="black" points="268.13,-100.87 265.1,-90.72 261.14,-100.55 268.13,-100.87"/>
<text text-anchor="middle" x="241.86" y="-166.21" font-family="Times,serif" font-size="14.00">JKL_K</text>
</g>
<!-- n7&#45;&gt;n4 -->
<g id="edge6" class="edge">
<title>n7&#45;&gt;n4</title>
<path fill="none" stroke="black" d="M285.05,-246.65C306.31,-248.9 336.21,-252.06 359.95,-254.58"/>
<polygon fill="black" stroke="black" points="359.57,-258.05 369.88,-255.63 360.31,-251.09 359.57,-258.05"/>
<text text-anchor="middle" x="303.37" y="-253.81" font-family="Times,serif" font-size="14.00">JKL_L</text>
</g>
<!-- n7&#45;&gt;n9 -->
<g id="edge11" class="edge">
<title>n7&#45;&gt;n9</title>
<path fill="none" stroke="black" d="M258.83,-225.5C259.85,-203.97 261.5,-168.72 262.41,-149.51"/>
<polygon fill="black" stroke="black" points="265.89,-149.93 262.86,-139.78 258.9,-149.61 265.89,-149.93"/>
<text text-anchor="middle" x="235.49" y="-190.7" font-family="Times,serif" font-size="14.00">value_jkl</text>
</g>
<!-- n8 -->
<g id="node8" class="node">
<title>n8</title>
<ellipse fill="none" stroke="black" cx="396.25" cy="-112.88" rx="27" ry="18"/>
<text text-anchor="middle" x="396.25" y="-107.83" font-family="Times,serif" font-size="14.00">KLM</text>
</g>
<!-- n8&#45;&gt;n3 -->
<g id="edge7" class="edge">
<title>n8&#45;&gt;n3</title>
<path fill="none" stroke="black" d="M371.76,-104.95C351.84,-98.51 323.48,-89.33 301.15,-82.1"/>
<polygon fill="black" stroke="black" points="302.44,-78.85 291.85,-79.1 300.29,-85.51 302.44,-78.85"/>
<text text-anchor="middle" x="312.83" y="-96.73" font-family="Times,serif" font-size="14.00">KLM_K</text>
</g>
<!-- n8&#45;&gt;n4 -->
<g id="edge8" class="edge">
<title>n8&#45;&gt;n4</title>
<path fill="none" stroke="black" d="M396.52,-131.34C396.88,-155.98 397.52,-199.91 397.94,-229.16"/>
<polygon fill="black" stroke="black" points="394.44,-228.87 398.09,-238.82 401.44,-228.77 394.44,-228.87"/>
<text text-anchor="middle" x="374.36" y="-183.45" font-family="Times,serif" font-size="14.00">KLM_L</text>
</g>
<!-- n8&#45;&gt;n5 -->
<g id="edge9" class="edge">
<title>n8&#45;&gt;n5</title>
<path fill="none" stroke="black" d="M416.17,-100.14C433.82,-88.85 459.82,-72.22 479.84,-59.42"/>
<polygon fill="black" stroke="black" points="481.59,-62.46 488.13,-54.12 477.82,-56.56 481.59,-62.46"/>
<text text-anchor="middle" x="422.88" y="-66.48" font-family="Times,serif" font-size="14.00">KLM_M</text>
</g>
<!-- n8&#45;&gt;n9 -->
<g id="edge12" class="edge">
<title>n8&#45;&gt;n9</title>
<path fill="none" stroke="black" d="M369.93,-117.44C341.73,-122.34 298.09,-129.91 276.33,-133.68"/>
<polygon fill="black" stroke="black" points="275.79,-130.22 266.54,-135.38 276.99,-137.12 275.79,-130.22"/>
<text text-anchor="middle" x="294.25" y="-128.76" font-family="Times,serif" font-size="14.00">value_klm</text>
</g>
</g>
</svg>
