<?xml version="1.0" encoding="UTF-8" standalone="no"?>
<!DOCTYPE svg PUBLIC "-//W3C//DTD SVG 1.1//EN"
 "http://www.w3.org/Graphics/SVG/1.1/DTD/svg11.dtd">
<!-- Generated by graphviz version 9.0.0 (20230911.1827)
 -->
<!-- Title: G Pages: 1 -->
<svg width="213pt" height="359pt"
 viewBox="0.00 0.00 213.04 359.29" xmlns="http://www.w3.org/2000/svg" xmlns:xlink="http://www.w3.org/1999/xlink">
<g id="graph0" class="graph" transform="scale(1 1) rotate(0) translate(4 355.29)">
<title>G</title>
<polygon fill="white" stroke="none" points="-4,4 -4,-355.29 209.04,-355.29 209.04,4 -4,4"/>
<!-- n1 -->
<g id="node1" class="node">
<title>n1</title>
<ellipse fill="none" stroke="black" cx="39.77" cy="-299.62" rx="26.52" ry="26.52"/>
<text text-anchor="middle" x="39.77" y="-294.57" font-family="Times,serif" font-size="14.00">ijk:IJK</text>
</g>
<!-- n4 -->
<g id="node4" class="node">
<title>n4</title>
<ellipse fill="none" stroke="black" cx="185.42" cy="-339.62" rx="11.67" ry="11.67"/>
<text text-anchor="middle" x="185.42" y="-334.57" font-family="Times,serif" font-size="14.00">i:I</text>
</g>
<!-- n1&#45;&gt;n4 -->
<g id="edge1" class="edge">
<title>n1&#45;&gt;n4</title>
<path fill="none" stroke="black" d="M65.8,-306.59C95.02,-314.73 142.54,-327.96 167.65,-334.95"/>
<polygon fill="black" stroke="black" points="167.07,-336.61 172.36,-336.26 168.01,-333.24 167.07,-336.61"/>
<text text-anchor="middle" x="122.67" y="-331.82" font-family="Times,serif" font-size="14.00">IJK_I</text>
</g>
<!-- n5 -->
<g id="node5" class="node">
<title>n5</title>
<ellipse fill="none" stroke="black" cx="185.42" cy="-261.62" rx="11.67" ry="11.67"/>
<text text-anchor="middle" x="185.42" y="-256.57" font-family="Times,serif" font-size="14.00">j:J</text>
</g>
<!-- n1&#45;&gt;n5 -->
<g id="edge2" class="edge">
<title>n1&#45;&gt;n5</title>
<path fill="none" stroke="black" d="M66.24,-295.93C88.17,-292.38 120.5,-286.29 147.8,-277.62 154.89,-275.37 162.46,-272.2 168.87,-269.28"/>
<polygon fill="black" stroke="black" points="169.23,-271.04 173.01,-267.33 167.74,-267.87 169.23,-271.04"/>
<text text-anchor="middle" x="122.67" y="-292.82" font-family="Times,serif" font-size="14.00">IJK_J</text>
</g>
<!-- n6 -->
<g id="node6" class="node">
<title>n6</title>
<ellipse fill="none" stroke="black" cx="185.42" cy="-179.62" rx="14.32" ry="14.32"/>
<text text-anchor="middle" x="185.42" y="-174.57" font-family="Times,serif" font-size="14.00">k:K</text>
</g>
<!-- n1&#45;&gt;n6 -->
<g id="edge4" class="edge">
<title>n1&#45;&gt;n6</title>
<path fill="none" stroke="black" d="M60.62,-282.66C71.12,-274.24 84.52,-264.35 97.55,-257.12 118.5,-245.5 129.31,-252.85 147.8,-237.62 160.44,-227.21 170.07,-211.25 176.27,-198.71"/>
<polygon fill="black" stroke="black" points="177.83,-199.5 178.39,-194.23 174.67,-198 177.83,-199.5"/>
<text text-anchor="middle" x="122.67" y="-259.82" font-family="Times,serif" font-size="14.00">IJK_K</text>
</g>
<!-- n2 -->
<g id="node2" class="node">
<title>n2</title>
<ellipse fill="none" stroke="black" cx="39.77" cy="-179.62" rx="29.17" ry="29.17"/>
<text text-anchor="middle" x="39.77" y="-174.57" font-family="Times,serif" font-size="14.00">jkl:JKL</text>
</g>
<!-- n2&#45;&gt;n5 -->
<g id="edge3" class="edge">
<title>n2&#45;&gt;n5</title>
<path fill="none" stroke="black" d="M67.84,-188.51C94.93,-197.7 134.46,-211.94 147.8,-221.12 158.15,-228.24 167.59,-238.84 174.3,-247.41"/>
<polygon fill="black" stroke="black" points="172.78,-248.3 177.19,-251.23 175.57,-246.19 172.78,-248.3"/>
<text text-anchor="middle" x="122.67" y="-223.82" font-family="Times,serif" font-size="14.00">JKL_J</text>
</g>
<!-- n2&#45;&gt;n6 -->
<g id="edge5" class="edge">
<title>n2&#45;&gt;n6</title>
<path fill="none" stroke="black" d="M69.15,-179.62C97.26,-179.62 139.57,-179.62 164.35,-179.62"/>
<polygon fill="black" stroke="black" points="164.34,-181.37 169.34,-179.62 164.34,-177.87 164.34,-181.37"/>
<text text-anchor="middle" x="122.67" y="-182.82" font-family="Times,serif" font-size="14.00">JKL_K</text>
</g>
<!-- n7 -->
<g id="node7" class="node">
<title>n7</title>
<ellipse fill="none" stroke="black" cx="185.42" cy="-102.62" rx="11.67" ry="11.67"/>
<text text-anchor="middle" x="185.42" y="-97.57" font-family="Times,serif" font-size="14.00">l:L</text>
</g>
<!-- n2&#45;&gt;n7 -->
<g id="edge7" class="edge">
<title>n2&#45;&gt;n7</title>
<path fill="none" stroke="black" d="M66.13,-166.03C95.95,-150.05 144.52,-124.01 169.11,-110.83"/>
<polygon fill="black" stroke="black" points="169.63,-112.54 173.21,-108.63 167.97,-109.45 169.63,-112.54"/>
<text text-anchor="middle" x="122.67" y="-150.82" font-family="Times,serif" font-size="14.00">JKL_L</text>
</g>
<!-- n3 -->
<g id="node3" class="node">
<title>n3</title>
<ellipse fill="none" stroke="black" cx="39.77" cy="-59.62" rx="39.77" ry="39.77"/>
<text text-anchor="middle" x="39.77" y="-54.57" font-family="Times,serif" font-size="14.00">klm:KLM</text>
</g>
<!-- n3&#45;&gt;n6 -->
<g id="edge6" class="edge">
<title>n3&#45;&gt;n6</title>
<path fill="none" stroke="black" d="M78.28,-71.25C104.75,-80.06 137.3,-92.27 147.8,-102.12 164.42,-117.72 174.26,-142.4 179.49,-159.71"/>
<polygon fill="black" stroke="black" points="177.73,-159.94 180.79,-164.27 181.1,-158.98 177.73,-159.94"/>
<text text-anchor="middle" x="122.67" y="-104.82" font-family="Times,serif" font-size="14.00">KLM_K</text>
</g>
<!-- n3&#45;&gt;n7 -->
<g id="edge8" class="edge">
<title>n3&#45;&gt;n7</title>
<path fill="none" stroke="black" d="M79.34,-52.8C100.47,-50.83 126.61,-51.38 147.8,-61.12 159.62,-66.56 169.19,-77.86 175.57,-87.29"/>
<polygon fill="black" stroke="black" points="173.97,-88.04 178.14,-91.3 176.91,-86.15 173.97,-88.04"/>
<text text-anchor="middle" x="122.67" y="-64.82" font-family="Times,serif" font-size="14.00">KLM_L</text>
</g>
<!-- n8 -->
<g id="node8" class="node">
<title>n8</title>
<ellipse fill="none" stroke="black" cx="185.42" cy="-19.62" rx="19.62" ry="19.62"/>
<text text-anchor="middle" x="185.42" y="-14.57" font-family="Times,serif" font-size="14.00">m:M</text>
</g>
<!-- n3&#45;&gt;n8 -->
<g id="edge9" class="edge">
<title>n3&#45;&gt;n8</title>
<path fill="none" stroke="black" d="M70.9,-34.53C79.07,-29.08 88.24,-24.07 97.55,-21.12 117.66,-14.76 141.72,-14.9 159.41,-16.34"/>
<polygon fill="black" stroke="black" points="158.98,-18.05 164.12,-16.77 159.3,-14.57 158.98,-18.05"/>
<text text-anchor="middle" x="122.67" y="-24.82" font-family="Times,serif" font-size="14.00">KLM_M</text>
</g>
</g>
</svg>
