<?xml version="1.0" encoding="UTF-8" standalone="no"?>
<!DOCTYPE svg PUBLIC "-//W3C//DTD SVG 1.1//EN"
 "http://www.w3.org/Graphics/SVG/1.1/DTD/svg11.dtd">
<!-- Generated by graphviz version 3.0.0 (20220226.1711)
 -->
<!-- Title: G Pages: 1 -->
<svg width="254pt" height="236pt"
 viewBox="0.00 0.00 254.37 235.99" xmlns="http://www.w3.org/2000/svg" xmlns:xlink="http://www.w3.org/1999/xlink">
<g id="graph0" class="graph" transform="scale(1 1) rotate(0) translate(4 231.99)">
<title>G</title>
<polygon fill="white" stroke="transparent" points="-4,4 -4,-231.99 250.37,-231.99 250.37,4 -4,4"/>
<!-- n1 -->
<g id="node1" class="node">
<title>n1</title>
<ellipse fill="none" stroke="black" cx="27" cy="-99.13" rx="27" ry="18"/>
<text text-anchor="middle" x="27" y="-95.43" font-family="Times,serif" font-size="14.00">I</text>
</g>
<!-- n4 -->
<g id="node4" class="node">
<title>n4</title>
<ellipse fill="black" stroke="black" cx="107.65" cy="-211.19" rx="1.8" ry="1.8"/>
<text text-anchor="middle" x="79.35" y="-216.79" font-family="Times,serif" font-size="14.00">RealType</text>
</g>
<!-- n1&#45;&gt;n4 -->
<g id="edge3" class="edge">
<title>n1&#45;&gt;n4</title>
<path fill="none" stroke="black" d="M33.99,-117.04C48.61,-142.27 81.05,-186.86 97.77,-204.19"/>
<polygon fill="black" stroke="black" points="95.96,-207.25 105.85,-211.05 100.49,-201.91 95.96,-207.25"/>
<text text-anchor="middle" x="40.88" y="-164.42" font-family="Times,serif" font-size="14.00">row_min</text>
</g>
<!-- n1&#45;&gt;n4 -->
<g id="edge4" class="edge">
<title>n1&#45;&gt;n4</title>
<path fill="none" stroke="black" d="M43.71,-113.68C63.21,-136.35 93.64,-179.29 104.29,-199.85"/>
<polygon fill="black" stroke="black" points="101.08,-201.25 108.06,-209.21 107.57,-198.63 101.08,-201.25"/>
<text text-anchor="middle" x="48" y="-145.57" font-family="Times,serif" font-size="14.00">row_max</text>
</g>
<!-- n2 -->
<g id="node2" class="node">
<title>n2</title>
<ellipse fill="none" stroke="black" cx="219.37" cy="-130.06" rx="27" ry="18"/>
<text text-anchor="middle" x="219.37" y="-126.36" font-family="Times,serif" font-size="14.00">J</text>
</g>
<!-- n2&#45;&gt;n4 -->
<g id="edge5" class="edge">
<title>n2&#45;&gt;n4</title>
<path fill="none" stroke="black" d="M192.11,-130.8C161.52,-143.1 116.62,-178.14 107.69,-199.41"/>
<polygon fill="black" stroke="black" points="104.19,-199.29 106.75,-209.57 111.16,-199.94 104.19,-199.29"/>
<text text-anchor="middle" x="122.9" y="-168.9" font-family="Times,serif" font-size="14.00">col_profit</text>
</g>
<!-- n2&#45;&gt;n4 -->
<g id="edge6" class="edge">
<title>n2&#45;&gt;n4</title>
<path fill="none" stroke="black" d="M216.03,-147.98C199.34,-173.97 144.22,-212.74 118.82,-214.8"/>
<polygon fill="black" stroke="black" points="119.56,-211.38 109.04,-212.65 118.05,-218.22 119.56,-211.38"/>
<text text-anchor="middle" x="144.42" y="-185.19" font-family="Times,serif" font-size="14.00">col_min</text>
</g>
<!-- n2&#45;&gt;n4 -->
<g id="edge7" class="edge">
<title>n2&#45;&gt;n4</title>
<path fill="none" stroke="black" d="M205.8,-146.04C183.55,-165.53 140.05,-196.7 119.18,-207.67"/>
<polygon fill="black" stroke="black" points="117.58,-204.55 109.67,-211.59 120.25,-211.02 117.58,-204.55"/>
<text text-anchor="middle" x="195.49" y="-165.66" font-family="Times,serif" font-size="14.00">col_optimal</text>
</g>
<!-- n2&#45;&gt;n4 -->
<g id="edge8" class="edge">
<title>n2&#45;&gt;n4</title>
<path fill="none" stroke="black" d="M196.55,-140.1C170.93,-155.84 131.01,-185.38 114.74,-201.15"/>
<polygon fill="black" stroke="black" points="111.67,-199.36 107.85,-209.25 117,-203.9 111.67,-199.36"/>
<text text-anchor="middle" x="143.64" y="-159.42" font-family="Times,serif" font-size="14.00">col_max</text>
</g>
<!-- n3 -->
<g id="node3" class="node">
<title>n3</title>
<ellipse fill="none" stroke="black" cx="138.72" cy="-18" rx="27" ry="18"/>
<text text-anchor="middle" x="138.72" y="-14.3" font-family="Times,serif" font-size="14.00">C</text>
</g>
<!-- n3&#45;&gt;n1 -->
<g id="edge1" class="edge">
<title>n3&#45;&gt;n1</title>
<path fill="none" stroke="black" d="M120.27,-31.4C102.16,-44.55 74.33,-64.76 53.79,-79.68"/>
<polygon fill="black" stroke="black" points="51.51,-77.01 45.48,-85.71 55.62,-82.67 51.51,-77.01"/>
<text text-anchor="middle" x="85.03" y="-59.34" font-family="Times,serif" font-size="14.00">i</text>
</g>
<!-- n3&#45;&gt;n2 -->
<g id="edge2" class="edge">
<title>n3&#45;&gt;n2</title>
<path fill="none" stroke="black" d="M150.62,-34.54C164.1,-53.26 186.2,-83.97 201.69,-105.5"/>
<polygon fill="black" stroke="black" points="199,-107.75 207.68,-113.82 204.68,-103.66 199,-107.75"/>
<text text-anchor="middle" x="174.16" y="-73.82" font-family="Times,serif" font-size="14.00">j</text>
</g>
</g>
</svg>
