<?xml version="1.0" encoding="UTF-8" standalone="no"?>
<!DOCTYPE svg PUBLIC "-//W3C//DTD SVG 1.1//EN"
 "http://www.w3.org/Graphics/SVG/1.1/DTD/svg11.dtd">
<!-- Generated by graphviz version 3.0.0 (20220226.1711)
 -->
<!-- Title: G Pages: 1 -->
<svg width="344pt" height="445pt"
 viewBox="0.00 0.00 412.22 534.44" xmlns="http://www.w3.org/2000/svg" xmlns:xlink="http://www.w3.org/1999/xlink">
<g id="graph0" class="graph" transform="scale(0.833333 0.833333) rotate(0) translate(4 530.44)">
<title>G</title>
<polygon fill="white" stroke="transparent" points="-4,4 -4,-530.44 408.22,-530.44 408.22,4 -4,4"/>
<!-- n1 -->
<g id="node1" class="node">
<title>n1</title>
<ellipse fill="none" stroke="black" cx="235.67" cy="-379.24" rx="27" ry="18"/>
<text text-anchor="middle" x="235.67" y="-375.54" font-family="Times,serif" font-size="14.00">M</text>
</g>
<!-- n10 -->
<g id="node10" class="node">
<title>n10</title>
<ellipse fill="black" stroke="black" cx="167.47" cy="-318.81" rx="1.8" ry="1.8"/>
<text text-anchor="middle" x="139.17" y="-305.81" font-family="Times,serif" font-size="14.00">RealType</text>
</g>
<!-- n1&#45;&gt;n10 -->
<g id="edge15" class="edge">
<title>n1&#45;&gt;n10</title>
<path fill="none" stroke="black" d="M246.05,-362.32C260.61,-322.73 212.81,-283.72 176.36,-310.61"/>
<polygon fill="black" stroke="black" points="173.91,-308.11 168.78,-317.38 178.57,-313.33 173.91,-308.11"/>
<text text-anchor="middle" x="235.7" y="-340.27" font-family="Times,serif" font-size="14.00">buy_min</text>
</g>
<!-- n1&#45;&gt;n10 -->
<g id="edge16" class="edge">
<title>n1&#45;&gt;n10</title>
<path fill="none" stroke="black" d="M217.67,-392.74C180.76,-408.92 138.78,-367.39 160.25,-328.9"/>
<polygon fill="black" stroke="black" points="163.42,-330.46 166.23,-320.25 157.67,-326.48 163.42,-330.46"/>
<text text-anchor="middle" x="166.46" y="-364.62" font-family="Times,serif" font-size="14.00">buy_opt</text>
</g>
<!-- n1&#45;&gt;n10 -->
<g id="edge17" class="edge">
<title>n1&#45;&gt;n10</title>
<path fill="none" stroke="black" d="M212.94,-389.13C185.29,-388.68 153.05,-355.37 161.43,-329.25"/>
<polygon fill="black" stroke="black" points="164.54,-330.85 166.16,-320.38 158.37,-327.56 164.54,-330.85"/>
<text text-anchor="middle" x="161.19" y="-347.99" font-family="Times,serif" font-size="14.00">buy_max</text>
</g>
<!-- n1&#45;&gt;n10 -->
<g id="edge18" class="edge">
<title>n1&#45;&gt;n10</title>
<path fill="none" stroke="black" d="M208.31,-378.25C189.16,-368.47 167.85,-346.58 164.86,-330.73"/>
<polygon fill="black" stroke="black" points="168.37,-330.89 166.21,-320.52 161.43,-329.97 168.37,-330.89"/>
<text text-anchor="middle" x="211.08" y="-358.29" font-family="Times,serif" font-size="14.00">buy_cost</text>
</g>
<!-- n1&#45;&gt;n10 -->
<g id="edge19" class="edge">
<title>n1&#45;&gt;n10</title>
<path fill="none" stroke="black" d="M214.13,-368.16C199.49,-357.02 181.35,-340.3 172.49,-329.32"/>
<polygon fill="black" stroke="black" points="175.4,-327.37 167.19,-320.67 169.43,-331.03 175.4,-327.37"/>
<text text-anchor="middle" x="181.31" y="-337.54" font-family="Times,serif" font-size="14.00">sell_min</text>
</g>
<!-- n1&#45;&gt;n10 -->
<g id="edge20" class="edge">
<title>n1&#45;&gt;n10</title>
<path fill="none" stroke="black" d="M225.25,-362.54C212.6,-348.89 191.72,-330.83 178.71,-322.65"/>
<polygon fill="black" stroke="black" points="179.98,-319.38 169.44,-318.32 177.02,-325.72 179.98,-319.38"/>
<text text-anchor="middle" x="212.73" y="-331.39" font-family="Times,serif" font-size="14.00">sell_opt</text>
</g>
<!-- n1&#45;&gt;n10 -->
<g id="edge21" class="edge">
<title>n1&#45;&gt;n10</title>
<path fill="none" stroke="black" d="M236.33,-361.1C227.76,-340.97 197.31,-315.61 178.53,-314.75"/>
<polygon fill="black" stroke="black" points="177.54,-311.4 168.86,-317.48 179.44,-318.13 177.54,-311.4"/>
<text text-anchor="middle" x="182.43" y="-326.73" font-family="Times,serif" font-size="14.00">sell_max</text>
</g>
<!-- n1&#45;&gt;n10 -->
<g id="edge22" class="edge">
<title>n1&#45;&gt;n10</title>
<path fill="none" stroke="black" d="M243.02,-361.5C244.46,-332.54 204.19,-299.52 177.44,-311.4"/>
<polygon fill="black" stroke="black" points="175.23,-308.68 168.97,-317.23 179.2,-314.45 175.23,-308.68"/>
<text text-anchor="middle" x="234.23" y="-325.25" font-family="Times,serif" font-size="14.00">sell_cost</text>
</g>
<!-- n2 -->
<g id="node2" class="node">
<title>n2</title>
<ellipse fill="none" stroke="black" cx="299.38" cy="-306.65" rx="27" ry="18"/>
<text text-anchor="middle" x="299.38" y="-302.95" font-family="Times,serif" font-size="14.00">F</text>
</g>
<!-- n2&#45;&gt;n10 -->
<g id="edge23" class="edge">
<title>n2&#45;&gt;n10</title>
<path fill="none" stroke="black" d="M272.5,-303.58C243.34,-304.2 198.25,-308.89 177.97,-313.9"/>
<polygon fill="black" stroke="black" points="176.76,-310.62 168.52,-317.28 179.12,-317.21 176.76,-310.62"/>
<text text-anchor="middle" x="201.24" y="-297.54" font-family="Times,serif" font-size="14.00">cap_min</text>
</g>
<!-- n2&#45;&gt;n10 -->
<g id="edge24" class="edge">
<title>n2&#45;&gt;n10</title>
<path fill="none" stroke="black" d="M274.76,-314.38C246.15,-319.18 200.17,-322.92 178.92,-321.72"/>
<polygon fill="black" stroke="black" points="179.24,-318.23 168.81,-320.12 178.14,-325.14 179.24,-318.23"/>
<text text-anchor="middle" x="239.34" y="-306.85" font-family="Times,serif" font-size="14.00">cap_max</text>
</g>
<!-- n3 -->
<g id="node3" class="node">
<title>n3</title>
<ellipse fill="none" stroke="black" cx="248.72" cy="-18" rx="27" ry="18"/>
<text text-anchor="middle" x="248.72" y="-14.3" font-family="Times,serif" font-size="14.00">A</text>
</g>
<!-- n4 -->
<g id="node4" class="node">
<title>n4</title>
<ellipse fill="none" stroke="black" cx="27" cy="-419" rx="27" ry="18"/>
<text text-anchor="middle" x="27" y="-415.3" font-family="Times,serif" font-size="14.00">Mconv</text>
</g>
<!-- n4&#45;&gt;n1 -->
<g id="edge1" class="edge">
<title>n4&#45;&gt;n1</title>
<path fill="none" stroke="black" d="M54.3,-418.56C92.4,-413.94 161.41,-400.96 202.45,-390.82"/>
<polygon fill="black" stroke="black" points="203.42,-394.18 212.24,-388.31 201.68,-387.4 203.42,-394.18"/>
<text text-anchor="middle" x="167.87" y="-393.49" font-family="Times,serif" font-size="14.00">m_from_conv</text>
</g>
<!-- n4&#45;&gt;n1 -->
<g id="edge2" class="edge">
<title>n4&#45;&gt;n1</title>
<path fill="none" stroke="black" d="M50.5,-409.92C86.54,-400.3 155.78,-386.86 198.62,-380.96"/>
<polygon fill="black" stroke="black" points="199.18,-384.41 208.65,-379.66 198.28,-377.47 199.18,-384.41"/>
<text text-anchor="middle" x="93.56" y="-399.24" font-family="Times,serif" font-size="14.00">m_to_conv</text>
</g>
<!-- n4&#45;&gt;n10 -->
<g id="edge25" class="edge">
<title>n4&#45;&gt;n10</title>
<path fill="none" stroke="black" d="M52.49,-412.79C87.33,-395.17 146.62,-351.61 163.45,-329.84"/>
<polygon fill="black" stroke="black" points="166.68,-331.21 168.03,-320.7 160.42,-328.08 166.68,-331.21"/>
<text text-anchor="middle" x="77.47" y="-375.12" font-family="Times,serif" font-size="14.00">conv_yield</text>
</g>
<!-- n4&#45;&gt;n10 -->
<g id="edge26" class="edge">
<title>n4&#45;&gt;n10</title>
<path fill="none" stroke="black" d="M36.5,-401.64C61.77,-374.89 127.9,-328.52 155.6,-319.06"/>
<polygon fill="black" stroke="black" points="156.34,-322.49 165.76,-317.63 155.37,-315.56 156.34,-322.49"/>
<text text-anchor="middle" x="68.55" y="-349.15" font-family="Times,serif" font-size="14.00">conv_cost</text>
</g>
<!-- n4&#45;&gt;n10 -->
<g id="edge27" class="edge">
<title>n4&#45;&gt;n10</title>
<path fill="none" stroke="black" d="M45.65,-405.7C75.93,-384.1 134.69,-342.19 157.8,-325.7"/>
<polygon fill="black" stroke="black" points="159.89,-328.51 166,-319.85 155.83,-322.81 159.89,-328.51"/>
<text text-anchor="middle" x="114.48" y="-354.5" font-family="Times,serif" font-size="14.00">conv_opt</text>
</g>
<!-- n5 -->
<g id="node5" class="node">
<title>n5</title>
<ellipse fill="none" stroke="black" cx="377.22" cy="-439.19" rx="27" ry="18"/>
<text text-anchor="middle" x="377.22" y="-435.49" font-family="Times,serif" font-size="14.00">Fin</text>
</g>
<!-- n5&#45;&gt;n1 -->
<g id="edge4" class="edge">
<title>n5&#45;&gt;n1</title>
<path fill="none" stroke="black" d="M354.16,-429.43C330.82,-419.54 294.52,-404.17 268.25,-393.04"/>
<polygon fill="black" stroke="black" points="269.29,-389.68 258.72,-389.01 266.56,-396.13 269.29,-389.68"/>
<text text-anchor="middle" x="292.7" y="-415.03" font-family="Times,serif" font-size="14.00">m_Fin</text>
</g>
<!-- n5&#45;&gt;n2 -->
<g id="edge3" class="edge">
<title>n5&#45;&gt;n2</title>
<path fill="none" stroke="black" d="M367.36,-422.41C354.04,-399.72 330.17,-359.08 314.56,-332.49"/>
<polygon fill="black" stroke="black" points="317.49,-330.57 309.41,-323.72 311.45,-334.12 317.49,-330.57"/>
<text text-anchor="middle" x="322.46" y="-381.25" font-family="Times,serif" font-size="14.00">f_Fin_</text>
</g>
<!-- n5&#45;&gt;n10 -->
<g id="edge28" class="edge">
<title>n5&#45;&gt;n10</title>
<path fill="none" stroke="black" d="M364.59,-423.08C326.6,-391.67 215.62,-328.69 179.03,-318.75"/>
<polygon fill="black" stroke="black" points="179.26,-315.25 168.96,-317.71 178.55,-322.22 179.26,-315.25"/>
<text text-anchor="middle" x="291.81" y="-359.71" font-family="Times,serif" font-size="14.00">in_min</text>
</g>
<!-- n5&#45;&gt;n10 -->
<g id="edge29" class="edge">
<title>n5&#45;&gt;n10</title>
<path fill="none" stroke="black" d="M350.85,-434.06C301.94,-414.33 200.44,-355.03 173.74,-329.29"/>
<polygon fill="black" stroke="black" points="176.23,-326.79 167.36,-320.99 170.68,-331.05 176.23,-326.79"/>
<text text-anchor="middle" x="279.8" y="-385.48" font-family="Times,serif" font-size="14.00">in_opt</text>
</g>
<!-- n5&#45;&gt;n10 -->
<g id="edge30" class="edge">
<title>n5&#45;&gt;n10</title>
<path fill="none" stroke="black" d="M356.73,-427.43C313.02,-402.35 211.94,-344.33 178.46,-325.12"/>
<polygon fill="black" stroke="black" points="179.83,-321.87 169.42,-319.92 176.35,-327.94 179.83,-321.87"/>
<text text-anchor="middle" x="288.59" y="-365.07" font-family="Times,serif" font-size="14.00">in_max</text>
</g>
<!-- n6 -->
<g id="node6" class="node">
<title>n6</title>
<ellipse fill="none" stroke="black" cx="212.84" cy="-508.44" rx="27" ry="18"/>
<text text-anchor="middle" x="212.84" y="-504.74" font-family="Times,serif" font-size="14.00">Fout</text>
</g>
<!-- n6&#45;&gt;n1 -->
<g id="edge6" class="edge">
<title>n6&#45;&gt;n1</title>
<path fill="none" stroke="black" d="M216.01,-490.48C219.81,-469 226.21,-432.8 230.67,-407.55"/>
<polygon fill="black" stroke="black" points="234.15,-407.93 232.45,-397.47 227.26,-406.71 234.15,-407.93"/>
<text text-anchor="middle" x="201.84" y="-452.81" font-family="Times,serif" font-size="14.00">m_Fout</text>
</g>
<!-- n6&#45;&gt;n2 -->
<g id="edge5" class="edge">
<title>n6&#45;&gt;n2</title>
<path fill="none" stroke="black" d="M220.37,-490.89C235.56,-455.47 269.96,-375.26 287.94,-333.33"/>
<polygon fill="black" stroke="black" points="291.21,-334.59 291.94,-324.02 284.78,-331.83 291.21,-334.59"/>
<text text-anchor="middle" x="235.66" y="-415.91" font-family="Times,serif" font-size="14.00">f_Fout</text>
</g>
<!-- n6&#45;&gt;n10 -->
<g id="edge31" class="edge">
<title>n6&#45;&gt;n10</title>
<path fill="none" stroke="black" d="M216.71,-490.42C215.23,-450.34 191.96,-355.36 175.95,-326.92"/>
<polygon fill="black" stroke="black" points="178.65,-324.69 169.61,-319.16 173.22,-329.12 178.65,-324.69"/>
<text text-anchor="middle" x="173.33" y="-412.47" font-family="Times,serif" font-size="14.00">out_min</text>
</g>
<!-- n6&#45;&gt;n10 -->
<g id="edge32" class="edge">
<title>n6&#45;&gt;n10</title>
<path fill="none" stroke="black" d="M200.36,-492.2C183.68,-454.53 162.27,-362.22 163.58,-330.03"/>
<polygon fill="black" stroke="black" points="167.05,-330.58 165.75,-320.06 160.2,-329.09 167.05,-330.58"/>
<text text-anchor="middle" x="202.97" y="-414.92" font-family="Times,serif" font-size="14.00">out_opt</text>
</g>
<!-- n6&#45;&gt;n10 -->
<g id="edge33" class="edge">
<title>n6&#45;&gt;n10</title>
<path fill="none" stroke="black" d="M208.57,-490.6C199.38,-452.2 177.95,-362.59 170.27,-330.5"/>
<polygon fill="black" stroke="black" points="173.63,-329.5 167.9,-320.58 166.82,-331.12 173.63,-329.5"/>
<text text-anchor="middle" x="213.92" y="-399.35" font-family="Times,serif" font-size="14.00">out_max</text>
</g>
<!-- n7 -->
<g id="node7" class="node">
<title>n7</title>
<ellipse fill="none" stroke="black" cx="109.12" cy="-153.86" rx="27" ry="18"/>
<text text-anchor="middle" x="109.12" y="-150.16" font-family="Times,serif" font-size="14.00">Fact</text>
</g>
<!-- n7&#45;&gt;n2 -->
<g id="edge7" class="edge">
<title>n7&#45;&gt;n2</title>
<path fill="none" stroke="black" d="M126.68,-167.96C160.52,-195.13 234.88,-254.85 274.07,-286.32"/>
<polygon fill="black" stroke="black" points="271.88,-289.05 281.87,-292.58 276.26,-283.59 271.88,-289.05"/>
<text text-anchor="middle" x="182.87" y="-230.94" font-family="Times,serif" font-size="14.00">f_Fact</text>
</g>
<!-- n7&#45;&gt;n3 -->
<g id="edge8" class="edge">
<title>n7&#45;&gt;n3</title>
<path fill="none" stroke="black" d="M124.6,-138.8C149.12,-114.93 197.08,-68.26 225.67,-40.44"/>
<polygon fill="black" stroke="black" points="228.46,-42.61 233.18,-33.13 223.57,-37.59 228.46,-42.61"/>
<text text-anchor="middle" x="156.63" y="-93.42" font-family="Times,serif" font-size="14.00">a_Fact</text>
</g>
<!-- n7&#45;&gt;n10 -->
<g id="edge34" class="edge">
<title>n7&#45;&gt;n10</title>
<path fill="none" stroke="black" d="M99.36,-170.66C94.41,-209.42 128.13,-300.42 155.67,-316.86"/>
<polygon fill="black" stroke="black" points="154.9,-320.28 165.45,-319.31 156.6,-313.49 154.9,-320.28"/>
<text text-anchor="middle" x="105.01" y="-247.56" font-family="Times,serif" font-size="14.00">act_min</text>
</g>
<!-- n7&#45;&gt;n10 -->
<g id="edge35" class="edge">
<title>n7&#45;&gt;n10</title>
<path fill="none" stroke="black" d="M130.93,-164.62C158.12,-195.65 186.1,-281.31 175.38,-310"/>
<polygon fill="black" stroke="black" points="172.58,-307.89 169.29,-317.97 178.14,-312.14 172.58,-307.89"/>
<text text-anchor="middle" x="133.16" y="-226.11" font-family="Times,serif" font-size="14.00">act_opt</text>
</g>
<!-- n7&#45;&gt;n10 -->
<g id="edge36" class="edge">
<title>n7&#45;&gt;n10</title>
<path fill="none" stroke="black" d="M123.95,-169.18C142.85,-202.08 169.02,-278.28 170.47,-307.38"/>
<polygon fill="black" stroke="black" points="166.97,-307.11 169.06,-317.5 173.91,-308.08 166.97,-307.11"/>
<text text-anchor="middle" x="170.71" y="-242.08" font-family="Times,serif" font-size="14.00">act_max</text>
</g>
<!-- n7&#45;&gt;n10 -->
<g id="edge37" class="edge">
<title>n7&#45;&gt;n10</title>
<path fill="none" stroke="black" d="M115.37,-171.51C127.4,-205.53 153.49,-279.29 163.48,-307.51"/>
<polygon fill="black" stroke="black" points="160.19,-308.71 166.82,-316.97 166.79,-306.37 160.19,-308.71"/>
<text text-anchor="middle" x="116.92" y="-228.31" font-family="Times,serif" font-size="14.00">act_cost</text>
</g>
<!-- n7&#45;&gt;n10 -->
<g id="edge38" class="edge">
<title>n7&#45;&gt;n10</title>
<path fill="none" stroke="black" d="M106.75,-171.82C111.55,-207.93 140.23,-287.43 157.92,-311.75"/>
<polygon fill="black" stroke="black" points="155.68,-314.46 165.36,-318.77 160.48,-309.36 155.68,-314.46"/>
<text text-anchor="middle" x="166.84" y="-245.59" font-family="Times,serif" font-size="14.00">act_cap_rate</text>
</g>
<!-- n8 -->
<g id="node8" class="node">
<title>n8</title>
<ellipse fill="none" stroke="black" cx="349.19" cy="-191.02" rx="27" ry="18"/>
<text text-anchor="middle" x="349.19" y="-187.32" font-family="Times,serif" font-size="14.00">Ain</text>
</g>
<!-- n8&#45;&gt;n1 -->
<g id="edge10" class="edge">
<title>n8&#45;&gt;n1</title>
<path fill="none" stroke="black" d="M339.12,-207.73C319.22,-240.71 274.78,-314.4 251.14,-353.59"/>
<polygon fill="black" stroke="black" points="248.05,-351.94 245.88,-362.31 254.05,-355.55 248.05,-351.94"/>
<text text-anchor="middle" x="275.63" y="-269.46" font-family="Times,serif" font-size="14.00">m_Ain</text>
</g>
<!-- n8&#45;&gt;n2 -->
<g id="edge9" class="edge">
<title>n8&#45;&gt;n2</title>
<path fill="none" stroke="black" d="M341.73,-208.34C333.59,-227.24 320.45,-257.75 310.96,-279.77"/>
<polygon fill="black" stroke="black" points="307.63,-278.65 306.89,-289.22 314.06,-281.42 307.63,-278.65"/>
<text text-anchor="middle" x="310.35" y="-247.85" font-family="Times,serif" font-size="14.00">f_Ain</text>
</g>
<!-- n8&#45;&gt;n3 -->
<g id="edge11" class="edge">
<title>n8&#45;&gt;n3</title>
<path fill="none" stroke="black" d="M339.38,-174.12C321.74,-143.75 284.61,-79.8 263.75,-43.89"/>
<polygon fill="black" stroke="black" points="266.63,-41.86 258.58,-34.97 260.57,-45.38 266.63,-41.86"/>
<text text-anchor="middle" x="284.56" y="-112.8" font-family="Times,serif" font-size="14.00">a_Ain</text>
</g>
<!-- n8&#45;&gt;n10 -->
<g id="edge39" class="edge">
<title>n8&#45;&gt;n10</title>
<path fill="none" stroke="black" d="M330.43,-204.22C292.32,-231.01 207,-291.01 177.63,-311.66"/>
<polygon fill="black" stroke="black" points="175.3,-309.02 169.14,-317.64 179.33,-314.75 175.3,-309.02"/>
<text text-anchor="middle" x="254.03" y="-246.74" font-family="Times,serif" font-size="14.00">act_in_rate</text>
</g>
<!-- n9 -->
<g id="node9" class="node">
<title>n9</title>
<ellipse fill="none" stroke="black" cx="222.12" cy="-175.43" rx="27" ry="18"/>
<text text-anchor="middle" x="222.12" y="-171.73" font-family="Times,serif" font-size="14.00">Aout</text>
</g>
<!-- n9&#45;&gt;n1 -->
<g id="edge13" class="edge">
<title>n9&#45;&gt;n1</title>
<path fill="none" stroke="black" d="M223.32,-193.52C225.69,-229.1 230.96,-308.42 233.79,-350.97"/>
<polygon fill="black" stroke="black" points="230.31,-351.45 234.47,-361.2 237.3,-350.99 230.31,-351.45"/>
<text text-anchor="middle" x="205.56" y="-276.05" font-family="Times,serif" font-size="14.00">m_Aout</text>
</g>
<!-- n9&#45;&gt;n2 -->
<g id="edge12" class="edge">
<title>n9&#45;&gt;n2</title>
<path fill="none" stroke="black" d="M232.06,-192.32C245.33,-214.86 268.95,-254.97 284.39,-281.19"/>
<polygon fill="black" stroke="black" points="281.39,-282.99 289.48,-289.83 287.42,-279.44 281.39,-282.99"/>
<text text-anchor="middle" x="238.73" y="-225.55" font-family="Times,serif" font-size="14.00">f_Aout</text>
</g>
<!-- n9&#45;&gt;n3 -->
<g id="edge14" class="edge">
<title>n9&#45;&gt;n3</title>
<path fill="none" stroke="black" d="M225.17,-157.37C229.76,-130.24 238.47,-78.69 243.91,-46.46"/>
<polygon fill="black" stroke="black" points="247.41,-46.78 245.62,-36.33 240.51,-45.61 247.41,-46.78"/>
<text text-anchor="middle" x="214.54" y="-105.72" font-family="Times,serif" font-size="14.00">a_Aout</text>
</g>
<!-- n9&#45;&gt;n10 -->
<g id="edge40" class="edge">
<title>n9&#45;&gt;n10</title>
<path fill="none" stroke="black" d="M215.42,-193.01C204.06,-222.81 181.33,-282.44 171.82,-307.4"/>
<polygon fill="black" stroke="black" points="168.47,-306.36 168.18,-316.95 175.01,-308.86 168.47,-306.36"/>
<text text-anchor="middle" x="227.12" y="-254.01" font-family="Times,serif" font-size="14.00">act_out_rate</text>
</g>
</g>
</svg>
