<?xml version="1.0" encoding="UTF-8" standalone="no"?>
<!DOCTYPE svg PUBLIC "-//W3C//DTD SVG 1.1//EN"
 "http://www.w3.org/Graphics/SVG/1.1/DTD/svg11.dtd">
<!-- Generated by graphviz version 3.0.0 (20220226.1711)
 -->
<!-- Title: G Pages: 1 -->
<svg width="236pt" height="288pt"
 viewBox="0.00 0.00 236.11 288.00" xmlns="http://www.w3.org/2000/svg" xmlns:xlink="http://www.w3.org/1999/xlink">
<g id="graph0" class="graph" transform="scale(0.995777 0.995777) rotate(0) translate(4 285.22)">
<title>G</title>
<polygon fill="white" stroke="transparent" points="-4,4 -4,-285.22 233.11,-285.22 233.11,4 -4,4"/>
<!-- n1 -->
<g id="node1" class="node">
<title>n1</title>
<ellipse fill="none" stroke="black" cx="131.33" cy="-198.62" rx="27" ry="18"/>
<text text-anchor="middle" x="131.33" y="-194.92" font-family="Times,serif" font-size="14.00">M</text>
</g>
<!-- n10 -->
<g id="node10" class="node">
<title>n10</title>
<ellipse fill="black" stroke="black" cx="97.24" cy="-168.4" rx="1.8" ry="1.8"/>
<text text-anchor="middle" x="68.94" y="-155.4" font-family="Times,serif" font-size="14.00">RealType</text>
</g>
<!-- n1&#45;&gt;n10 -->
<g id="edge15" class="edge">
<title>n1&#45;&gt;n10</title>
<path fill="none" stroke="black" d="M143.3,-182.35C163.09,-148.16 138.41,-129.91 105.63,-159.84"/>
<polygon fill="black" stroke="black" points="103.1,-157.42 98.52,-166.97 108.06,-162.36 103.1,-157.42"/>
<text text-anchor="middle" x="99.96" y="-159.89" font-family="Times,serif" font-size="14.00">buy_min</text>
</g>
<!-- n1&#45;&gt;n10 -->
<g id="edge16" class="edge">
<title>n1&#45;&gt;n10</title>
<path fill="none" stroke="black" d="M115.25,-213.46C84.54,-235.5 64.47,-213.52 89.51,-178.09"/>
<polygon fill="black" stroke="black" points="92.57,-179.86 95.99,-169.84 87.06,-175.55 92.57,-179.86"/>
<text text-anchor="middle" x="79.88" y="-199.57" font-family="Times,serif" font-size="14.00">buy_opt</text>
</g>
<!-- n1&#45;&gt;n10 -->
<g id="edge17" class="edge">
<title>n1&#45;&gt;n10</title>
<path fill="none" stroke="black" d="M112.86,-211.86C92.99,-218.65 77.86,-200.81 90.1,-178.39"/>
<polygon fill="black" stroke="black" points="93.12,-180.19 95.89,-169.97 87.35,-176.23 93.12,-180.19"/>
<text text-anchor="middle" x="75.48" y="-183.93" font-family="Times,serif" font-size="14.00">buy_max</text>
</g>
<!-- n1&#45;&gt;n10 -->
<g id="edge18" class="edge">
<title>n1&#45;&gt;n10</title>
<path fill="none" stroke="black" d="M104.24,-201.25C96.83,-196.44 91.5,-187.99 92.26,-179.47"/>
<polygon fill="black" stroke="black" points="95.57,-180.61 95.93,-170.02 89.05,-178.08 95.57,-180.61"/>
<text text-anchor="middle" x="73.75" y="-179.16" font-family="Times,serif" font-size="14.00">buy_cost</text>
</g>
<!-- n1&#45;&gt;n10 -->
<g id="edge19" class="edge">
<title>n1&#45;&gt;n10</title>
<path fill="none" stroke="black" d="M109.01,-187.85C106,-185.11 103.21,-182.19 101.04,-179.43"/>
<polygon fill="black" stroke="black" points="104.1,-177.73 96.54,-170.31 97.83,-180.83 104.1,-177.73"/>
<text text-anchor="middle" x="117.03" y="-172.44" font-family="Times,serif" font-size="14.00">sell_min</text>
</g>
<!-- n1&#45;&gt;n10 -->
<g id="edge20" class="edge">
<title>n1&#45;&gt;n10</title>
<path fill="none" stroke="black" d="M121.87,-181.36C117.68,-177.25 112.79,-173.34 108.41,-170.72"/>
<polygon fill="black" stroke="black" points="109.48,-167.39 98.89,-167.51 107.25,-174.02 109.48,-167.39"/>
<text text-anchor="middle" x="93.64" y="-164.84" font-family="Times,serif" font-size="14.00">sell_opt</text>
</g>
<!-- n1&#45;&gt;n10 -->
<g id="edge21" class="edge">
<title>n1&#45;&gt;n10</title>
<path fill="none" stroke="black" d="M135.62,-180.54C132.38,-169.07 119.38,-159.66 107.68,-162.12"/>
<polygon fill="black" stroke="black" points="105.99,-159.05 98.78,-166.82 109.26,-165.24 105.99,-159.05"/>
<text text-anchor="middle" x="146.65" y="-175.13" font-family="Times,serif" font-size="14.00">sell_max</text>
</g>
<!-- n1&#45;&gt;n10 -->
<g id="edge22" class="edge">
<title>n1&#45;&gt;n10</title>
<path fill="none" stroke="black" d="M141.4,-181.87C148.58,-159.57 128.21,-144.57 106.41,-160.04"/>
<polygon fill="black" stroke="black" points="103.9,-157.59 98.69,-166.82 108.51,-162.85 103.9,-157.59"/>
<text text-anchor="middle" x="123.91" y="-159.76" font-family="Times,serif" font-size="14.00">sell_cost</text>
</g>
<!-- n2 -->
<g id="node2" class="node">
<title>n2</title>
<ellipse fill="none" stroke="black" cx="163.19" cy="-162.33" rx="27" ry="18"/>
<text text-anchor="middle" x="163.19" y="-158.63" font-family="Times,serif" font-size="14.00">F</text>
</g>
<!-- n2&#45;&gt;n10 -->
<g id="edge23" class="edge">
<title>n2&#45;&gt;n10</title>
<path fill="none" stroke="black" d="M136.9,-158.12C126.48,-158.65 115.13,-160.2 107.25,-162.37"/>
<polygon fill="black" stroke="black" points="105.72,-159.22 98.04,-166.52 108.6,-165.6 105.72,-159.22"/>
<text text-anchor="middle" x="98.07" y="-149.04" font-family="Times,serif" font-size="14.00">cap_min</text>
</g>
<!-- n2&#45;&gt;n10 -->
<g id="edge24" class="edge">
<title>n2&#45;&gt;n10</title>
<path fill="none" stroke="black" d="M139.23,-171.11C128.64,-172.6 116.7,-173.22 108.27,-172.52"/>
<polygon fill="black" stroke="black" points="108.96,-169.08 98.41,-170.14 107.31,-175.89 108.96,-169.08"/>
<text text-anchor="middle" x="148.75" y="-160.61" font-family="Times,serif" font-size="14.00">cap_max</text>
</g>
<!-- n3 -->
<g id="node3" class="node">
<title>n3</title>
<ellipse fill="none" stroke="black" cx="137.86" cy="-18" rx="27" ry="18"/>
<text text-anchor="middle" x="137.86" y="-14.3" font-family="Times,serif" font-size="14.00">A</text>
</g>
<!-- n4 -->
<g id="node4" class="node">
<title>n4</title>
<ellipse fill="none" stroke="black" cx="27" cy="-218.5" rx="27" ry="18"/>
<text text-anchor="middle" x="27" y="-214.8" font-family="Times,serif" font-size="14.00">Mconv</text>
</g>
<!-- n4&#45;&gt;n1 -->
<g id="edge1" class="edge">
<title>n4&#45;&gt;n1</title>
<path fill="none" stroke="black" d="M54.17,-219.37C67.84,-217.7 84.52,-214.66 98.86,-211.28"/>
<polygon fill="black" stroke="black" points="99.98,-214.61 108.82,-208.77 98.27,-207.82 99.98,-214.61"/>
<text text-anchor="middle" x="116.02" y="-219.12" font-family="Times,serif" font-size="14.00">m_from_conv</text>
</g>
<!-- n4&#45;&gt;n1 -->
<g id="edge2" class="edge">
<title>n4&#45;&gt;n1</title>
<path fill="none" stroke="black" d="M49.6,-208.33C62.6,-204.82 79.25,-201.41 94.13,-199.14"/>
<polygon fill="black" stroke="black" points="94.65,-202.6 104.08,-197.77 93.69,-195.67 94.65,-202.6"/>
<text text-anchor="middle" x="40.86" y="-192.54" font-family="Times,serif" font-size="14.00">m_to_conv</text>
</g>
<!-- n4&#45;&gt;n10 -->
<g id="edge25" class="edge">
<title>n4&#45;&gt;n10</title>
<path fill="none" stroke="black" d="M53.68,-214.52C69.88,-206.07 88.43,-191.23 95.43,-179.9"/>
<polygon fill="black" stroke="black" points="98.84,-180.67 98.05,-170.1 92.08,-178.85 98.84,-180.67"/>
<text text-anchor="middle" x="105.05" y="-201.01" font-family="Times,serif" font-size="14.00">conv_yield</text>
</g>
<!-- n4&#45;&gt;n10 -->
<g id="edge26" class="edge">
<title>n4&#45;&gt;n10</title>
<path fill="none" stroke="black" d="M33.38,-200.89C45.68,-186.63 70.4,-169.92 85.6,-166.41"/>
<polygon fill="black" stroke="black" points="85.74,-169.93 95.96,-167.12 86.22,-162.95 85.74,-169.93"/>
<text text-anchor="middle" x="31.99" y="-172.45" font-family="Times,serif" font-size="14.00">conv_cost</text>
</g>
<!-- n4&#45;&gt;n10 -->
<g id="edge27" class="edge">
<title>n4&#45;&gt;n10</title>
<path fill="none" stroke="black" d="M45.45,-205.34C58.87,-195.77 76.5,-183.19 87.34,-175.46"/>
<polygon fill="black" stroke="black" points="89.4,-178.29 95.51,-169.63 85.34,-172.59 89.4,-178.29"/>
<text text-anchor="middle" x="40.9" y="-194.2" font-family="Times,serif" font-size="14.00">conv_opt</text>
</g>
<!-- n5 -->
<g id="node5" class="node">
<title>n5</title>
<ellipse fill="none" stroke="black" cx="202.11" cy="-228.6" rx="27" ry="18"/>
<text text-anchor="middle" x="202.11" y="-224.9" font-family="Times,serif" font-size="14.00">Fin</text>
</g>
<!-- n5&#45;&gt;n1 -->
<g id="edge4" class="edge">
<title>n5&#45;&gt;n1</title>
<path fill="none" stroke="black" d="M178.93,-218.78C174.12,-216.74 168.96,-214.56 163.88,-212.41"/>
<polygon fill="black" stroke="black" points="164.89,-209.03 154.32,-208.36 162.16,-215.48 164.89,-209.03"/>
<text text-anchor="middle" x="180.66" y="-204.39" font-family="Times,serif" font-size="14.00">m_Fin</text>
</g>
<!-- n5&#45;&gt;n2 -->
<g id="edge3" class="edge">
<title>n5&#45;&gt;n2</title>
<path fill="none" stroke="black" d="M192.09,-211.53C187.88,-204.36 182.89,-195.87 178.26,-187.98"/>
<polygon fill="black" stroke="black" points="181.13,-185.96 173.05,-179.1 175.09,-189.5 181.13,-185.96"/>
<text text-anchor="middle" x="203.67" y="-188.56" font-family="Times,serif" font-size="14.00">f_Fin_</text>
</g>
<!-- n5&#45;&gt;n10 -->
<g id="edge28" class="edge">
<title>n5&#45;&gt;n10</title>
<path fill="none" stroke="black" d="M191.96,-211.47C172.08,-193.59 129.55,-170.07 108.68,-166.35"/>
<polygon fill="black" stroke="black" points="108.3,-162.87 98.55,-167.02 108.76,-169.85 108.3,-162.87"/>
<text text-anchor="middle" x="170.32" y="-192.71" font-family="Times,serif" font-size="14.00">in_min</text>
</g>
<!-- n5&#45;&gt;n10 -->
<g id="edge29" class="edge">
<title>n5&#45;&gt;n10</title>
<path fill="none" stroke="black" d="M175.36,-226.04C150.01,-216.22 114.33,-194.41 101.52,-179.65"/>
<polygon fill="black" stroke="black" points="104.43,-177.66 96.69,-170.42 98.22,-180.9 104.43,-177.66"/>
<text text-anchor="middle" x="155.94" y="-206.65" font-family="Times,serif" font-size="14.00">in_opt</text>
</g>
<!-- n5&#45;&gt;n10 -->
<g id="edge30" class="edge">
<title>n5&#45;&gt;n10</title>
<path fill="none" stroke="black" d="M181.64,-216.85C159.55,-204.17 125.23,-184.47 107.95,-174.55"/>
<polygon fill="black" stroke="black" points="109.48,-171.4 99.07,-169.46 106,-177.47 109.48,-171.4"/>
<text text-anchor="middle" x="165.8" y="-184.5" font-family="Times,serif" font-size="14.00">in_max</text>
</g>
<!-- n6 -->
<g id="node6" class="node">
<title>n6</title>
<ellipse fill="none" stroke="black" cx="119.92" cy="-263.22" rx="27" ry="18"/>
<text text-anchor="middle" x="119.92" y="-259.52" font-family="Times,serif" font-size="14.00">Fout</text>
</g>
<!-- n6&#45;&gt;n1 -->
<g id="edge6" class="edge">
<title>n6&#45;&gt;n1</title>
<path fill="none" stroke="black" d="M123.1,-245.23C124.11,-239.49 125.26,-232.99 126.37,-226.71"/>
<polygon fill="black" stroke="black" points="129.88,-226.98 128.17,-216.52 122.98,-225.76 129.88,-226.98"/>
<text text-anchor="middle" x="146.23" y="-239.77" font-family="Times,serif" font-size="14.00">m_Fout</text>
</g>
<!-- n6&#45;&gt;n2 -->
<g id="edge5" class="edge">
<title>n6&#45;&gt;n2</title>
<path fill="none" stroke="black" d="M127.46,-245.65C134.16,-230.02 144.06,-206.94 151.74,-189.04"/>
<polygon fill="black" stroke="black" points="155.02,-190.27 155.74,-179.7 148.58,-187.51 155.02,-190.27"/>
<text text-anchor="middle" x="158.1" y="-221.14" font-family="Times,serif" font-size="14.00">f_Fout</text>
</g>
<!-- n6&#45;&gt;n10 -->
<g id="edge31" class="edge">
<title>n6&#45;&gt;n10</title>
<path fill="none" stroke="black" d="M126.22,-245.61C126.24,-224.08 117.04,-188.92 106.9,-174.62"/>
<polygon fill="black" stroke="black" points="109.07,-171.87 99.09,-168.32 104.68,-177.32 109.07,-171.87"/>
<text text-anchor="middle" x="93.56" y="-213.91" font-family="Times,serif" font-size="14.00">out_min</text>
</g>
<!-- n6&#45;&gt;n10 -->
<g id="edge32" class="edge">
<title>n6&#45;&gt;n10</title>
<path fill="none" stroke="black" d="M105.13,-247.9C96.02,-228.42 89.07,-195.46 91.38,-178.7"/>
<polygon fill="black" stroke="black" points="94.68,-179.89 95.35,-169.31 88.23,-177.16 94.68,-179.89"/>
<text text-anchor="middle" x="77.25" y="-217.1" font-family="Times,serif" font-size="14.00">out_opt</text>
</g>
<!-- n6&#45;&gt;n10 -->
<g id="edge33" class="edge">
<title>n6&#45;&gt;n10</title>
<path fill="none" stroke="black" d="M115.65,-245.39C111.12,-226.42 104.06,-196.95 100.13,-180.52"/>
<polygon fill="black" stroke="black" points="103.49,-179.5 97.76,-170.58 96.68,-181.12 103.49,-179.5"/>
<text text-anchor="middle" x="107.89" y="-201.75" font-family="Times,serif" font-size="14.00">out_max</text>
</g>
<!-- n7 -->
<g id="node7" class="node">
<title>n7</title>
<ellipse fill="none" stroke="black" cx="68.06" cy="-85.93" rx="27" ry="18"/>
<text text-anchor="middle" x="68.06" y="-82.23" font-family="Times,serif" font-size="14.00">Fact</text>
</g>
<!-- n7&#45;&gt;n2 -->
<g id="edge7" class="edge">
<title>n7&#45;&gt;n2</title>
<path fill="none" stroke="black" d="M85.51,-99.94C100.13,-111.68 121.19,-128.59 137.7,-141.85"/>
<polygon fill="black" stroke="black" points="135.87,-144.87 145.85,-148.4 140.25,-139.41 135.87,-144.87"/>
<text text-anchor="middle" x="94.1" y="-124.7" font-family="Times,serif" font-size="14.00">f_Fact</text>
</g>
<!-- n7&#45;&gt;n3 -->
<g id="edge8" class="edge">
<title>n7&#45;&gt;n3</title>
<path fill="none" stroke="black" d="M83.55,-70.85C92.86,-61.79 104.87,-50.11 115.23,-40.03"/>
<polygon fill="black" stroke="black" points="117.69,-42.52 122.41,-33.03 112.81,-37.5 117.69,-42.52"/>
<text text-anchor="middle" x="80.89" y="-44.24" font-family="Times,serif" font-size="14.00">a_Fact</text>
</g>
<!-- n7&#45;&gt;n10 -->
<g id="edge34" class="edge">
<title>n7&#45;&gt;n10</title>
<path fill="none" stroke="black" d="M54.35,-101.79C48.02,-124.84 64.06,-163.38 85.3,-168.92"/>
<polygon fill="black" stroke="black" points="85.35,-172.42 95.37,-168.97 85.38,-165.42 85.35,-172.42"/>
<text text-anchor="middle" x="47.32" y="-139.16" font-family="Times,serif" font-size="14.00">act_min</text>
</g>
<!-- n7&#45;&gt;n10 -->
<g id="edge35" class="edge">
<title>n7&#45;&gt;n10</title>
<path fill="none" stroke="black" d="M93,-93.27C109.67,-109.48 118.78,-144.59 107.04,-161.03"/>
<polygon fill="black" stroke="black" points="104.42,-158.66 98.93,-167.72 108.87,-164.06 104.42,-158.66"/>
<text text-anchor="middle" x="120.02" y="-130.95" font-family="Times,serif" font-size="14.00">act_opt</text>
</g>
<!-- n7&#45;&gt;n10 -->
<g id="edge36" class="edge">
<title>n7&#45;&gt;n10</title>
<path fill="none" stroke="black" d="M85.1,-100.04C94.75,-116.41 103.02,-142.78 102.32,-157.64"/>
<polygon fill="black" stroke="black" points="98.98,-156.6 99.2,-167.19 105.63,-158.77 98.98,-156.6"/>
<text text-anchor="middle" x="70.21" y="-117.64" font-family="Times,serif" font-size="14.00">act_max</text>
</g>
<!-- n7&#45;&gt;n10 -->
<g id="edge37" class="edge">
<title>n7&#45;&gt;n10</title>
<path fill="none" stroke="black" d="M74.39,-103.82C80.08,-119.91 88.27,-143.06 93.14,-156.83"/>
<polygon fill="black" stroke="black" points="89.97,-158.36 96.61,-166.62 96.57,-156.03 89.97,-158.36"/>
<text text-anchor="middle" x="106.27" y="-119.13" font-family="Times,serif" font-size="14.00">act_cost</text>
</g>
<!-- n7&#45;&gt;n10 -->
<g id="edge38" class="edge">
<title>n7&#45;&gt;n10</title>
<path fill="none" stroke="black" d="M63.21,-103.81C65.09,-122.94 76.13,-151.84 86.79,-163.53"/>
<polygon fill="black" stroke="black" points="85.06,-166.58 95.44,-168.72 88.66,-160.58 85.06,-166.58"/>
<text text-anchor="middle" x="40.5" y="-122.47" font-family="Times,serif" font-size="14.00">act_cap_rate</text>
</g>
<!-- n8 -->
<g id="node8" class="node">
<title>n8</title>
<ellipse fill="none" stroke="black" cx="188.1" cy="-104.51" rx="27" ry="18"/>
<text text-anchor="middle" x="188.1" y="-100.81" font-family="Times,serif" font-size="14.00">Ain</text>
</g>
<!-- n8&#45;&gt;n1 -->
<g id="edge10" class="edge">
<title>n8&#45;&gt;n1</title>
<path fill="none" stroke="black" d="M177.95,-121.34C169.28,-135.7 156.69,-156.58 146.78,-173.02"/>
<polygon fill="black" stroke="black" points="143.75,-171.26 141.59,-181.63 149.75,-174.87 143.75,-171.26"/>
<text text-anchor="middle" x="181.86" y="-135.98" font-family="Times,serif" font-size="14.00">m_Ain</text>
</g>
<!-- n8&#45;&gt;n2 -->
<g id="edge9" class="edge">
<title>n8&#45;&gt;n2</title>
<path fill="none" stroke="black" d="M180.62,-121.86C178.75,-126.2 176.7,-130.96 174.68,-135.65"/>
<polygon fill="black" stroke="black" points="171.4,-134.42 170.66,-144.99 177.83,-137.19 171.4,-134.42"/>
<text text-anchor="middle" x="161.65" y="-117.55" font-family="Times,serif" font-size="14.00">f_Ain</text>
</g>
<!-- n8&#45;&gt;n3 -->
<g id="edge11" class="edge">
<title>n8&#45;&gt;n3</title>
<path fill="none" stroke="black" d="M178.17,-87.42C170.95,-74.98 161.04,-57.91 152.85,-43.81"/>
<polygon fill="black" stroke="black" points="155.81,-41.95 147.77,-35.06 149.76,-45.46 155.81,-41.95"/>
<text text-anchor="middle" x="148.51" y="-54.42" font-family="Times,serif" font-size="14.00">a_Ain</text>
</g>
<!-- n8&#45;&gt;n10 -->
<g id="edge39" class="edge">
<title>n8&#45;&gt;n10</title>
<path fill="none" stroke="black" d="M169.27,-117.75C150.38,-131.03 122.02,-150.98 107.15,-161.43"/>
<polygon fill="black" stroke="black" points="104.95,-158.7 98.78,-167.32 108.98,-164.43 104.95,-158.7"/>
<text text-anchor="middle" x="168.71" y="-128.39" font-family="Times,serif" font-size="14.00">act_in_rate</text>
</g>
<!-- n9 -->
<g id="node9" class="node">
<title>n9</title>
<ellipse fill="none" stroke="black" cx="124.56" cy="-96.72" rx="27" ry="18"/>
<text text-anchor="middle" x="124.56" y="-93.02" font-family="Times,serif" font-size="14.00">Aout</text>
</g>
<!-- n9&#45;&gt;n1 -->
<g id="edge13" class="edge">
<title>n9&#45;&gt;n1</title>
<path fill="none" stroke="black" d="M125.77,-114.94C126.79,-130.3 128.27,-152.54 129.45,-170.23"/>
<polygon fill="black" stroke="black" points="125.98,-170.82 130.13,-180.56 132.96,-170.35 125.98,-170.82"/>
<text text-anchor="middle" x="150.61" y="-131.39" font-family="Times,serif" font-size="14.00">m_Aout</text>
</g>
<!-- n9&#45;&gt;n2 -->
<g id="edge12" class="edge">
<title>n9&#45;&gt;n2</title>
<path fill="none" stroke="black" d="M134.51,-113.61C138.62,-120.6 143.48,-128.86 148.02,-136.57"/>
<polygon fill="black" stroke="black" points="145.05,-138.42 153.14,-145.26 151.08,-134.87 145.05,-138.42"/>
<text text-anchor="middle" x="141.27" y="-113.89" font-family="Times,serif" font-size="14.00">f_Aout</text>
</g>
<!-- n9&#45;&gt;n3 -->
<g id="edge14" class="edge">
<title>n9&#45;&gt;n3</title>
<path fill="none" stroke="black" d="M127.64,-78.46C129.26,-68.92 131.26,-57.04 133.07,-46.34"/>
<polygon fill="black" stroke="black" points="136.58,-46.6 134.79,-36.16 129.68,-45.44 136.58,-46.6"/>
<text text-anchor="middle" x="110.36" y="-66.2" font-family="Times,serif" font-size="14.00">a_Aout</text>
</g>
<!-- n9&#45;&gt;n10 -->
<g id="edge40" class="edge">
<title>n9&#45;&gt;n10</title>
<path fill="none" stroke="black" d="M117.81,-114.44C112.75,-127.69 105.99,-145.43 101.62,-156.89"/>
<polygon fill="black" stroke="black" points="98.22,-155.99 97.93,-166.58 104.76,-158.49 98.22,-155.99"/>
<text text-anchor="middle" x="76.21" y="-139.46" font-family="Times,serif" font-size="14.00">act_out_rate</text>
</g>
</g>
</svg>
